<svg width="340" height="83" viewBox="0 0 340 83" fill="none" xmlns="http://www.w3.org/2000/svg">
<path d="M57.8119 33.41C62.3806 33.41 66.0872 29.7121 66.0872 25.1475L49.5898 26.0616C50.0461 30.1943 53.5542 33.407 57.8119 33.407V33.41Z" fill="url(#paint0_linear_363_2)"/>
<path d="M57.8119 16.8878C53.5512 16.8878 50.0461 20.1035 49.5898 24.2333L66.0872 25.1474C66.0872 20.5857 62.3836 16.8849 57.8119 16.8849V16.8878Z" fill="url(#paint1_linear_363_2)"/>
<path d="M41.2613 16.8878C37.3207 16.8878 34.023 19.642 33.1904 23.3251L49.4833 24.2273C49.0241 20.0976 45.519 16.8878 41.2613 16.8878Z" fill="url(#paint2_linear_363_2)"/>
<path d="M41.2613 33.41C45.519 33.41 49.0241 30.1973 49.4833 26.0704L33.1904 26.9727C34.023 30.6558 37.3177 33.41 41.2613 33.41Z" fill="url(#paint3_linear_363_2)"/>
<path d="M24.7135 16.8878C21.1017 16.8878 18.0322 19.1982 16.9033 22.4228L32.7785 23.3044C31.937 19.6302 28.6482 16.8908 24.7135 16.8908V16.8878Z" fill="url(#paint4_linear_363_2)"/>
<path d="M24.7135 33.4099C28.6482 33.4099 31.937 30.6676 32.7785 26.9963L16.9033 27.8779C18.0322 31.0995 21.1017 33.4129 24.7135 33.4129V33.4099Z" fill="url(#paint5_linear_363_2)"/>
<path d="M25.1757 33.4099C20.607 33.4099 16.9004 37.1078 16.9004 41.6724L33.3977 40.7583C32.9415 36.6256 29.4334 33.4129 25.1757 33.4129V33.4099Z" fill="url(#paint6_linear_363_2)"/>
<path d="M25.1757 49.935C29.4364 49.935 32.9415 46.7193 33.3977 42.5895L16.9004 41.6754C16.9004 46.2371 20.604 49.9379 25.1757 49.9379V49.935Z" fill="url(#paint7_linear_363_2)"/>
<path d="M41.7264 49.935C45.667 49.935 48.9647 47.1808 49.7973 43.4977L33.5044 42.5955C33.9636 46.7252 37.4687 49.935 41.7264 49.935Z" fill="url(#paint8_linear_363_2)"/>
<path d="M41.7264 33.4099C37.4687 33.4099 33.9636 36.6226 33.5044 40.7494L49.7973 39.8472C48.9647 36.1641 45.67 33.4099 41.7264 33.4099Z" fill="url(#paint9_linear_363_2)"/>
<path d="M58.2742 49.935C61.886 49.935 64.9555 47.6245 66.0844 44.4L50.2092 43.5184C51.0507 47.1926 54.3395 49.932 58.2742 49.932V49.935Z" fill="url(#paint10_linear_363_2)"/>
<path d="M58.2742 33.4099C54.3395 33.4099 51.0507 36.1523 50.2092 39.8235L66.0844 38.942C64.9555 35.7204 61.886 33.407 58.2742 33.407V33.4099Z" fill="url(#paint11_linear_363_2)"/>
<path d="M57.8119 66.4571C62.3806 66.4571 66.0872 62.7592 66.0872 58.1946L49.5898 59.1087C50.0461 63.2414 53.5542 66.4541 57.8119 66.4541V66.4571Z" fill="url(#paint12_linear_363_2)"/>
<path d="M57.8119 49.935C53.5512 49.935 50.0461 53.1506 49.5898 57.2804L66.0872 58.1945C66.0872 53.6328 62.3836 49.932 57.8119 49.932V49.935Z" fill="url(#paint13_linear_363_2)"/>
<path d="M41.2613 49.9349C37.3207 49.9349 34.023 52.6891 33.1904 56.3722L49.4833 57.2745C49.0241 53.1447 45.519 49.9349 41.2613 49.9349Z" fill="url(#paint14_linear_363_2)"/>
<path d="M41.2613 66.4571C45.519 66.4571 49.0241 63.2444 49.4833 59.1176L33.1904 60.0198C34.023 63.7029 37.3177 66.4571 41.2613 66.4571Z" fill="url(#paint15_linear_363_2)"/>
<path d="M24.7135 49.9349C21.1017 49.9349 18.0322 52.2454 16.9033 55.4699L32.7785 56.3515C31.937 52.6773 28.6482 49.9379 24.7135 49.9379V49.9349Z" fill="url(#paint16_linear_363_2)"/>
<path d="M24.7135 66.457C28.6482 66.457 31.937 63.7147 32.7785 60.0435L16.9033 60.925C18.0322 64.1466 21.1017 66.46 24.7135 66.46V66.457Z" fill="url(#paint17_linear_363_2)"/>
<path d="M259.499 57.4845L259.786 59.2329H260.506L260.805 57.4845V55.9285H259.499V57.4845Z" fill="#2B286F"/>
<path d="M82.464 19.4089L75.1782 36.5095H77.6736L79.7934 31.473H87.0291L89.2908 36.5095H91.7778L84.1749 19.4089H82.4682H82.464ZM80.7573 29.302L83.2944 23.1445L86.0318 29.302H80.7573Z" fill="#2B286F"/>
<path d="M99.2472 27.3694L97.3944 26.2693C96.5599 25.7798 95.959 25.3113 95.5834 24.8679C95.2079 24.4245 95.0201 23.9476 95.0201 23.4373C95.0201 22.8642 95.2746 22.3915 95.7837 22.0234C96.2928 21.6553 96.9438 21.4712 97.7366 21.4712C99.1429 21.4712 100.461 22.061 101.684 23.2407V20.4798C100.503 19.6808 99.2055 19.2834 97.7867 19.2834C96.3679 19.2834 95.1036 19.7018 94.173 20.5384C93.2466 21.375 92.7834 22.4626 92.7834 23.8012C92.7834 24.6922 93.0296 25.4828 93.5179 26.1689C94.0061 26.8549 94.8323 27.5535 95.9882 28.2604L97.8326 29.3857C99.3223 30.3143 100.065 31.2974 100.065 32.3306C100.065 32.9706 99.8105 33.5019 99.3056 33.9244C98.8007 34.351 98.1664 34.5602 97.407 34.5602C95.6836 34.5602 94.1647 33.7278 92.8544 32.0629V35.1542C94.2314 36.1874 95.7545 36.7019 97.432 36.7019C98.8883 36.7019 100.073 36.2753 100.983 35.4261C101.893 34.5727 102.348 33.4684 102.348 32.1047C102.348 30.1888 101.313 28.6118 99.243 27.3736L99.2472 27.3694Z" fill="#2B286F"/>
<path d="M116.652 19.4089L109.366 36.5095H111.862L113.982 31.473H121.217L123.479 36.5095H125.966L118.363 19.4089H116.656H116.652ZM114.946 29.302L117.483 23.1445L120.22 29.302H114.946Z" fill="#2B286F"/>
<path d="M242.773 35.288C242.418 34.8028 241.942 34.0749 241.354 33.1086C240.415 31.5734 239.685 30.4984 239.167 29.8834C238.65 29.2685 238.12 28.7791 237.577 28.4235C238.5 28.068 239.209 27.5283 239.701 26.8047C240.194 26.081 240.44 25.2276 240.44 24.2362C240.44 22.7847 239.935 21.6302 238.929 20.781C237.924 19.9276 236.559 19.5051 234.844 19.5051H230.596V36.5053H233.025V29.1054H233.655C234.448 29.1054 235.015 29.1974 235.349 29.3773C235.687 29.5613 236.063 29.8583 236.48 30.2683C236.897 30.6824 237.356 31.2388 237.857 31.9332L238.671 33.2592L239.422 34.5016L239.893 35.1709C239.964 35.2671 240.014 35.3382 240.039 35.3801L240.778 36.5011H243.666L242.768 35.2838L242.773 35.288ZM236.476 26.6206C236.017 26.8298 235.174 26.9385 233.943 26.9385H233.021V21.5716H233.751C234.94 21.5716 235.791 21.6594 236.305 21.8393C236.818 22.0192 237.219 22.3245 237.502 22.7596C237.786 23.1946 237.928 23.6799 237.928 24.2153C237.928 24.7508 237.799 25.2444 237.544 25.671C237.289 26.0977 236.935 26.4156 236.476 26.6248V26.6206Z" fill="#2B286F"/>
<path d="M105.043 22.0736V22.906V23.2072V36.5053H107.472V23.2072V22.906V21.5758V20.9525V19.6557L105.043 19.2876V22.0736Z" fill="#2B286F"/>
<path d="M141.297 21.9313V22.906V23.3243V32.7112L129.859 19.5051H127.894V36.5053H130.176V23.4122L141.514 36.5053H143.6V23.3243V22.906V21.4377V20.8103V19.5135L141.297 19.1454V21.9313Z" fill="#2B286F"/>
<path d="M197.134 21.9313V22.906V32.7112L185.696 19.5051H183.731V36.5053H186.013V23.4122L197.351 36.5053H199.441V23.3243V22.906V21.4377V20.8103V19.5135L197.134 19.1454V21.9313Z" fill="#2B286F"/>
<path d="M210.696 19.501H203.915C202.692 19.501 201.574 19.3169 201.574 19.3169L201.979 21.6469H207.441V36.5053H209.882V21.6469H215.845V19.3713C215.845 19.3713 215.424 19.501 214.18 19.501H210.696Z" fill="#2B286F"/>
<path d="M158.243 32.6611C157.095 31.4605 156.52 29.9253 156.52 28.0596C156.52 26.194 157.104 24.6713 158.268 23.4415C159.436 22.2116 160.901 21.5967 162.666 21.5967C164.118 21.5967 165.6 22.0067 167.106 22.814L167.953 20.6848C165.975 19.752 164.173 19.2834 162.554 19.2834C160.204 19.2834 158.231 20.1284 156.632 21.8142C155.03 23.5 154.233 25.5832 154.233 28.0596C154.233 29.6157 154.583 31.0673 155.28 32.4059C155.981 33.7445 156.929 34.7944 158.13 35.56C159.328 36.3213 160.793 36.7019 162.512 36.7019C164.632 36.7019 166.501 36.2167 168.12 35.242V32.5648C166.338 33.8323 164.515 34.464 162.645 34.464C160.776 34.464 159.391 33.8616 158.239 32.6611H158.243Z" fill="#2B286F"/>
<path d="M226.536 34.3134H224.992H220.519V29.0301H225.906L226.219 29.0343C226.415 29.0343 226.611 29.0468 226.807 29.0677L227.35 29.1305L226.92 26.8507H224.546H220.519V21.6678H223.97L226.131 21.6762H226.444C226.64 21.6762 226.836 21.6887 227.033 21.7096L227.571 21.7724L227.141 19.5051H218.086V36.4844H226.386L226.699 36.4886C226.895 36.4886 227.091 36.5011 227.287 36.522L227.838 36.5848L227.408 34.3175H226.528L226.536 34.3134Z" fill="#2B286F"/>
<path d="M179.754 34.3134H178.21H173.737V29.0301H179.124L179.437 29.0343C179.633 29.0343 179.829 29.0468 180.025 29.0677L180.568 29.1305L180.138 26.8507H177.764H173.737V21.6678H177.188L179.349 21.6762H179.662C179.858 21.6762 180.054 21.6887 180.251 21.7096L180.789 21.7724L180.359 19.5051H171.304V36.4844H179.604L179.917 36.4886C180.113 36.4886 180.309 36.5011 180.505 36.522L181.056 36.5848L180.626 34.3175H179.746L179.754 34.3134Z" fill="#2B286F"/>
<path d="M158.652 47.6073C156.269 47.6073 154.295 48.4565 152.735 50.1506C151.174 51.849 150.394 53.9907 150.394 56.5801C150.394 59.1694 151.17 61.2024 152.718 62.8799C154.266 64.5573 156.202 65.3939 158.531 65.3939C160.859 65.3939 162.983 64.5573 164.586 62.8799C166.188 61.2024 166.985 59.0858 166.985 56.5299C166.985 53.974 166.192 51.8448 164.607 50.1506C163.021 48.4523 161.035 47.6073 158.652 47.6073ZM162.896 61.1188C161.769 62.3611 160.359 62.9803 158.673 62.9803C156.987 62.9803 155.593 62.3737 154.475 61.1564C153.357 59.9391 152.797 58.4165 152.797 56.5801C152.797 54.7437 153.352 53.1374 154.467 51.9201C155.581 50.7028 157.004 50.0963 158.731 50.0963C160.459 50.0963 161.761 50.7112 162.887 51.941C164.014 53.1708 164.581 54.6851 164.581 56.4839C164.581 58.2826 164.018 59.8764 162.887 61.1188H162.896Z" fill="#2B286F"/>
<path d="M95.0034 47.6073C92.6207 47.6073 90.647 48.4565 89.0863 50.1506C87.5257 51.849 86.7454 53.9907 86.7454 56.5801C86.7454 59.1694 87.5215 61.2024 89.0696 62.8799C90.6178 64.5573 92.554 65.3939 94.8824 65.3939C97.2109 65.3939 99.3349 64.5573 100.937 62.8799C102.54 61.2024 103.337 59.0858 103.337 56.5299C103.337 53.974 102.544 51.8448 100.958 50.1506C99.3724 48.4523 97.3861 47.6073 95.0034 47.6073ZM99.2472 61.1188C98.1206 62.3611 96.7101 62.9803 95.0243 62.9803C93.3385 62.9803 91.9447 62.3737 90.8264 61.1564C89.7081 59.9391 89.1489 58.4165 89.1489 56.5801C89.1489 54.7437 89.7039 53.1374 90.8181 51.9201C91.9322 50.7028 93.3552 50.0963 95.0827 50.0963C96.8103 50.0963 98.1122 50.7112 99.2389 51.941C100.366 53.1708 100.933 54.6851 100.933 56.4839C100.933 58.2826 100.37 59.8764 99.2389 61.1188H99.2472Z" fill="#2B286F"/>
<path d="M116.752 61.6291C115.813 60.0939 115.083 59.0189 114.566 58.404C114.048 57.789 113.518 57.2996 112.976 56.944C113.898 56.5885 114.607 56.0489 115.1 55.3252C115.592 54.6015 115.838 53.7481 115.838 52.7567C115.838 51.3052 115.333 50.1507 114.328 49.3015C113.322 48.4481 111.958 48.0256 110.243 48.0256H105.995V65.0258H108.423V57.6259H109.053C109.846 57.6259 110.414 57.7179 110.748 57.8978C111.086 58.0818 111.461 58.3789 111.878 58.7888C112.296 59.2029 112.755 59.7593 113.255 60.4537L114.069 61.7797L114.82 63.0221L115.292 63.6914C115.363 63.7876 115.413 63.8587 115.438 63.9006L116.176 65.0216H119.064L118.167 63.8043C117.812 63.3191 117.336 62.5912 116.748 61.6249L116.752 61.6291ZM111.878 55.1411C111.419 55.3503 110.576 55.459 109.345 55.459H108.423V50.0921H109.153C110.343 50.0921 111.194 50.1799 111.707 50.3598C112.221 50.5397 112.621 50.8451 112.905 51.2801C113.189 51.7151 113.331 52.2004 113.331 52.7358C113.331 53.2713 113.201 53.7649 112.947 54.1915C112.692 54.6182 112.337 54.9361 111.878 55.1453V55.1411Z" fill="#2B286F"/>
<path d="M142.753 59.7425L138.025 48.0256H135.73L131.028 59.7425L126.354 48.0256H123.905L130.744 65.0969H131.265L136.865 51.2717L142.411 65.0969H142.945L149.801 48.0256H147.381L142.753 59.7425Z" fill="#2B286F"/>
<path d="M178.01 55.0073L172.372 48.0256H170.073V65.0258H172.502V51.7946L177.776 58.3705H178.227L183.439 51.7946V65.0258H185.88V48.0256H183.61L178.01 55.0073Z" fill="#2B286F"/>
<path d="M220.602 50.1674L221.149 53.5139H222.522L223.093 50.1674V47.1848H220.602V50.1674Z" fill="#2B286F"/>
<path d="M231.669 55.8899L229.816 54.7898C228.981 54.3003 228.38 53.8318 228.005 53.3884C227.629 52.945 227.441 52.4681 227.441 51.9578C227.441 51.3847 227.696 50.912 228.205 50.5439C228.714 50.1758 229.365 49.9917 230.158 49.9917C231.564 49.9917 232.883 50.5815 234.106 51.7612V49.0003C232.925 48.2014 231.627 47.804 230.208 47.804C228.789 47.804 227.525 48.2223 226.594 49.0589C225.668 49.8955 225.205 50.9831 225.205 52.3217C225.205 53.2127 225.451 54.0033 225.939 54.6894C226.427 55.3754 227.254 56.074 228.41 56.7809L230.254 57.9062C231.744 58.8348 232.486 59.8179 232.486 60.8511C232.486 61.4911 232.232 62.0224 231.727 62.4449C231.222 62.8715 230.588 63.0807 229.828 63.0807C228.105 63.0807 226.586 62.2483 225.276 60.5834V63.6747C226.653 64.7079 228.176 65.2225 229.853 65.2225C231.31 65.2225 232.495 64.7958 233.404 63.9466C234.314 63.0932 234.769 61.9889 234.769 60.6252C234.769 58.7093 233.734 57.1323 231.664 55.8941L231.669 55.8899Z" fill="#2B286F"/>
<path d="M250.997 55.8899L249.144 54.7898C248.31 54.3003 247.709 53.8318 247.333 53.3884C246.958 52.945 246.77 52.4681 246.77 51.9578C246.77 51.3847 247.025 50.912 247.534 50.5439C248.043 50.1758 248.694 49.9917 249.487 49.9917C250.893 49.9917 252.211 50.5815 253.434 51.7612V49.0003C252.253 48.2014 250.955 47.804 249.537 47.804C248.118 47.804 246.854 48.2223 245.923 49.0589C244.997 49.8955 244.533 50.9831 244.533 52.3217C244.533 53.2127 244.78 54.0033 245.268 54.6894C245.756 55.3754 246.582 56.074 247.738 56.7809L249.583 57.9062C251.072 58.8348 251.815 59.8179 251.815 60.8511C251.815 61.4911 251.561 62.0224 251.056 62.4449C250.551 62.8715 249.916 63.0807 249.157 63.0807C247.434 63.0807 245.915 62.2483 244.604 60.5834V63.6747C245.981 64.7079 247.505 65.2225 249.182 65.2225C250.638 65.2225 251.823 64.7958 252.733 63.9466C253.643 63.0932 254.098 61.9889 254.098 60.6252C254.098 58.7093 253.063 57.1323 250.993 55.8941L250.997 55.8899Z" fill="#2B286F"/>
<path d="M300.061 49.1718C298.785 48.4774 297.049 48.1302 294.854 48.1302H289.417V65.1095H294.52C295.951 65.1095 296.919 65.0677 297.428 64.9798C297.937 64.8962 298.492 64.7247 299.102 64.4737C300.141 64.0596 301.05 63.4488 301.839 62.6373C302.607 61.8509 303.199 60.939 303.617 59.8974C304.034 58.8599 304.238 57.7723 304.238 56.6345C304.238 55.0449 303.863 53.5767 303.108 52.2297C302.352 50.8827 301.338 49.8621 300.061 49.1677V49.1718ZM300.141 61.0477C299.786 61.4116 299.398 61.717 298.968 61.968C298.543 62.2148 298.008 62.424 297.37 62.5829C296.732 62.7461 295.834 62.8255 294.678 62.8255H291.724V50.5146H294.612C295.722 50.5146 296.523 50.5565 297.024 50.6443C297.524 50.7321 298.054 50.9078 298.609 51.1756C299.168 51.4433 299.661 51.7863 300.091 52.2046C301.259 53.3257 301.843 54.7772 301.843 56.555C301.843 58.3329 301.276 59.8597 300.137 61.0477H300.141Z" fill="#2B286F"/>
<path d="M215.54 50.6066V51.5813V61.3865L204.103 48.1804H202.137V65.1806H204.42V52.0875L215.757 65.1806H217.848V51.9996V51.5813V50.1088V49.4856V48.1888L215.54 47.8207V50.6066Z" fill="#2B286F"/>
<path d="M264.601 48.1637H257.82C256.597 48.1637 255.479 47.9796 255.479 47.9796L255.884 50.3096H261.346V65.168H263.787V50.3096H269.75V48.034C269.75 48.034 269.328 48.1637 268.085 48.1637H264.601Z" fill="#2B286F"/>
<path d="M83.115 54.9278H82.6393L80.7949 54.9361H77.7946V50.1883H80.799L82.9606 50.1967H83.2735C83.4697 50.1967 83.6658 50.2092 83.8619 50.2301L84.4002 50.2929L83.9704 48.0256H75.3618V65.0258H77.7904V57.103H82.3722H82.9689H83.2819C83.478 57.103 83.6741 57.1156 83.8703 57.1365L84.4086 57.1992L83.9788 54.932H83.1108L83.115 54.9278Z" fill="#2B286F"/>
<path d="M197.96 62.7711H196.416H191.943V57.4878H197.33L197.643 57.492C197.839 57.492 198.035 57.5046 198.232 57.5255L198.774 57.5882L198.344 55.3084H195.97H191.943V50.1256H195.394L197.556 50.1339H197.868C198.065 50.1339 198.261 50.1465 198.457 50.1674L198.995 50.2301L198.565 47.9629H196.199H189.51V64.9422H197.81L198.123 64.9463C198.319 64.9463 198.515 64.9589 198.711 64.9798L199.262 65.0426L198.832 62.7753H197.952L197.96 62.7711Z" fill="#2B286F"/>
<path d="M321.781 63.0095H320.237H315.764V57.7262H321.151L321.464 57.7304C321.66 57.7304 321.856 57.743 322.053 57.7639L322.595 57.8266L322.165 55.5468H319.791H315.764V50.364H319.215L321.377 50.3723H321.69C321.886 50.3723 322.082 50.3849 322.278 50.4058L322.816 50.4685L322.386 48.2013H320.02H313.331V65.1806H321.631L321.944 65.1847C322.14 65.1847 322.336 65.1973 322.532 65.2182L323.083 65.281L322.653 63.0137H321.773L321.781 63.0095Z" fill="#2B286F"/>
<path d="M283.591 54.5471V57.6761C283.591 59.0146 283.487 59.96 283.274 60.5122C283.066 61.0644 282.719 61.5413 282.243 61.947C281.338 62.7 280.165 63.0806 278.722 63.0806C277.712 63.0806 276.831 62.8924 276.089 62.5159C275.346 62.1394 274.791 61.6375 274.424 61.0142C274.061 60.3909 273.877 59.2782 273.877 57.6802V48.377L271.436 48.0298V57.6551C271.436 59.0272 271.528 60.0311 271.707 60.6753C271.891 61.3154 272.12 61.8592 272.4 62.2984C272.679 62.7418 273.021 63.1392 273.426 63.4989C274.762 64.6493 276.535 65.2266 278.742 65.2266C280.95 65.2266 282.669 64.6451 284.013 63.4864C284.418 63.1392 284.76 62.7418 285.039 62.2984C285.319 61.855 285.553 61.3028 285.745 60.6377C285.936 59.9726 286.028 58.9854 286.028 57.6802V54.5513V48.377L283.587 48.0298V54.5513L283.591 54.5471Z" fill="#2B286F"/>
<path d="M330.603 57.9354L328.75 56.8059C327.59 56.0948 326.764 55.3962 326.271 54.706C325.779 54.0158 325.533 53.2252 325.533 52.33C325.533 50.9872 325.996 49.8954 326.926 49.0588C327.857 48.2222 329.063 47.7997 330.548 47.7997C332.034 47.7997 333.273 48.2013 334.458 49.0002V51.7736C333.232 50.5898 331.913 50 330.498 50C329.701 50 329.05 50.1841 328.537 50.5522C328.028 50.9203 327.769 51.393 327.769 51.9703C327.769 52.4806 327.957 52.9617 328.333 53.4051C328.708 53.8527 329.317 54.3212 330.152 54.8106L332.013 55.9149C334.087 57.1573 335.126 58.7385 335.126 60.6628C335.126 62.0306 334.671 63.1434 333.757 63.9967C332.844 64.8501 331.654 65.2809 330.194 65.2809C328.512 65.2809 326.981 64.7622 325.599 63.7248V60.6209C326.914 62.2942 328.437 63.1266 330.169 63.1266C330.932 63.1266 331.567 62.9133 332.076 62.4866C332.585 62.0599 332.835 61.5287 332.835 60.8887C332.835 59.8512 332.088 58.864 330.594 57.9354H330.603Z" fill="#2B286F"/>
<path d="M307.522 50.845V51.6775V51.9787V65.281H309.951V51.9787V51.6775V50.3514V49.724V48.4272L307.522 48.0591V50.845Z" fill="#2B286F"/>
<defs>
<linearGradient id="paint0_linear_363_2" x1="28.1297" y1="78.0891" x2="66.3094" y2="11.8578" gradientUnits="userSpaceOnUse">
<stop offset="0.24" stop-color="#2D2380"/>
<stop offset="0.92" stop-color="#6BB780"/>
</linearGradient>
<linearGradient id="paint1_linear_363_2" x1="26.9504" y1="77.4087" x2="65.1302" y2="11.1774" gradientUnits="userSpaceOnUse">
<stop offset="0.24" stop-color="#2D2380"/>
<stop offset="0.92" stop-color="#6BB780"/>
</linearGradient>
<linearGradient id="paint2_linear_363_2" x1="14.3198" y1="70.1283" x2="52.4995" y2="3.89697" gradientUnits="userSpaceOnUse">
<stop offset="0.24" stop-color="#2D2380"/>
<stop offset="0.92" stop-color="#6BB780"/>
</linearGradient>
<linearGradient id="paint3_linear_363_2" x1="15.9731" y1="71.0809" x2="54.1528" y2="4.84961" gradientUnits="userSpaceOnUse">
<stop offset="0.24" stop-color="#2D2380"/>
<stop offset="0.92" stop-color="#6BB780"/>
</linearGradient>
<linearGradient id="paint4_linear_363_2" x1="1.64743" y1="62.8242" x2="39.8271" y2="-3.40706" gradientUnits="userSpaceOnUse">
<stop offset="0.24" stop-color="#2D2380"/>
<stop offset="0.92" stop-color="#6BB780"/>
</linearGradient>
<linearGradient id="paint5_linear_363_2" x1="3.85477" y1="64.0934" x2="42.0315" y2="-2.13791" gradientUnits="userSpaceOnUse">
<stop offset="0.24" stop-color="#2D2380"/>
<stop offset="0.92" stop-color="#6BB780"/>
</linearGradient>
<linearGradient id="paint6_linear_363_2" x1="9.42503" y1="67.3061" x2="47.6018" y2="1.07478" gradientUnits="userSpaceOnUse">
<stop offset="0.24" stop-color="#2D2380"/>
<stop offset="0.92" stop-color="#6BB780"/>
</linearGradient>
<linearGradient id="paint7_linear_363_2" x1="10.6013" y1="67.9865" x2="48.781" y2="1.7552" gradientUnits="userSpaceOnUse">
<stop offset="0.24" stop-color="#2D2380"/>
<stop offset="0.92" stop-color="#6BB780"/>
</linearGradient>
<linearGradient id="paint8_linear_363_2" x1="23.2321" y1="75.2669" x2="61.4118" y2="9.03558" gradientUnits="userSpaceOnUse">
<stop offset="0.24" stop-color="#2D2380"/>
<stop offset="0.92" stop-color="#6BB780"/>
</linearGradient>
<linearGradient id="paint9_linear_363_2" x1="21.5817" y1="74.3143" x2="59.7615" y2="8.08298" gradientUnits="userSpaceOnUse">
<stop offset="0.24" stop-color="#2D2380"/>
<stop offset="0.92" stop-color="#6BB780"/>
</linearGradient>
<linearGradient id="paint10_linear_363_2" x1="35.9044" y1="82.5709" x2="74.0841" y2="16.3396" gradientUnits="userSpaceOnUse">
<stop offset="0.24" stop-color="#2D2380"/>
<stop offset="0.92" stop-color="#6BB780"/>
</linearGradient>
<linearGradient id="paint11_linear_363_2" x1="33.7" y1="81.2988" x2="71.8798" y2="15.0705" gradientUnits="userSpaceOnUse">
<stop offset="0.24" stop-color="#2D2380"/>
<stop offset="0.92" stop-color="#6BB780"/>
</linearGradient>
<linearGradient id="paint12_linear_363_2" x1="42.4611" y1="86.3516" x2="80.6408" y2="20.1203" gradientUnits="userSpaceOnUse">
<stop offset="0.24" stop-color="#2D2380"/>
<stop offset="0.92" stop-color="#6BB780"/>
</linearGradient>
<linearGradient id="paint13_linear_363_2" x1="41.2849" y1="85.6712" x2="79.4617" y2="19.4399" gradientUnits="userSpaceOnUse">
<stop offset="0.24" stop-color="#2D2380"/>
<stop offset="0.92" stop-color="#6BB780"/>
</linearGradient>
<linearGradient id="paint14_linear_363_2" x1="28.6543" y1="78.3908" x2="66.831" y2="12.1595" gradientUnits="userSpaceOnUse">
<stop offset="0.24" stop-color="#2D2380"/>
<stop offset="0.92" stop-color="#6BB780"/>
</linearGradient>
<linearGradient id="paint15_linear_363_2" x1="30.3046" y1="79.3434" x2="68.4843" y2="13.1121" gradientUnits="userSpaceOnUse">
<stop offset="0.24" stop-color="#2D2380"/>
<stop offset="0.92" stop-color="#6BB780"/>
</linearGradient>
<linearGradient id="paint16_linear_363_2" x1="15.9819" y1="71.0868" x2="54.1586" y2="4.85547" gradientUnits="userSpaceOnUse">
<stop offset="0.24" stop-color="#2D2380"/>
<stop offset="0.92" stop-color="#6BB780"/>
</linearGradient>
<linearGradient id="paint17_linear_363_2" x1="18.1862" y1="72.3559" x2="56.3659" y2="6.1246" gradientUnits="userSpaceOnUse">
<stop offset="0.24" stop-color="#2D2380"/>
<stop offset="0.92" stop-color="#6BB780"/>
</linearGradient>
</defs>
</svg>
