<svg width="702" height="171" viewBox="0 0 702 171" fill="none" xmlns="http://www.w3.org/2000/svg">
<path d="M186.019 46.7638C184.315 44.9401 182.311 43.5129 179.996 42.4821C177.681 41.4513 175.231 40.9329 172.641 40.9329C170.051 40.9329 167.534 41.4513 165.249 42.4821C162.964 43.519 160.967 44.9462 159.263 46.7638C157.558 48.5875 156.214 50.704 155.225 53.1132C154.235 55.5285 153.74 58.0841 153.74 60.7922C153.74 63.5003 154.235 66.123 155.225 68.5078C156.214 70.8988 157.564 72.9908 159.263 74.784C160.967 76.5833 162.958 77.9984 165.249 79.0292C167.534 80.0599 170.002 80.5784 172.641 80.5784C175.28 80.5784 177.687 80.0599 179.996 79.0292C182.305 77.9984 184.315 76.5772 186.019 74.784C187.723 72.9908 189.067 70.8927 190.057 68.5078C191.046 66.123 191.541 63.5491 191.541 60.7922C191.541 58.0353 191.046 55.5224 190.057 53.1132C189.067 50.704 187.717 48.5814 186.019 46.7638ZM183.392 66.001C182.769 67.5991 181.914 68.9897 180.833 70.173C179.751 71.3562 178.505 72.2894 177.1 72.9786C175.695 73.6679 174.205 74.0094 172.635 74.0094C171.065 74.0094 169.58 73.6679 168.169 72.9786C166.764 72.2894 165.518 71.3562 164.437 70.173C163.355 68.9897 162.5 67.5991 161.877 66.001C161.254 64.403 160.942 62.6891 160.942 60.8654C160.942 59.0417 161.254 57.2485 161.877 55.62C162.5 53.9976 163.349 52.5825 164.437 51.3749C165.518 50.1672 166.764 49.2218 168.169 48.5326C169.574 47.8434 171.065 47.5018 172.635 47.5018C174.205 47.5018 175.689 47.8495 177.1 48.5326C178.505 49.2218 179.751 50.1733 180.833 51.3749C181.914 52.5825 182.769 53.9976 183.392 55.62C184.015 57.2424 184.327 58.9929 184.327 60.8654C184.327 62.7379 184.015 64.3969 183.392 66.001Z" fill="#2B286F"/>
<path d="M312.593 46.7638C310.888 44.9401 308.885 43.5129 306.569 42.4821C304.254 41.4513 301.805 40.9329 299.215 40.9329C296.624 40.9329 294.108 41.4513 291.823 42.4821C289.538 43.519 287.541 44.9462 285.836 46.7638C284.132 48.5875 282.788 50.704 281.798 53.1132C280.809 55.5285 280.314 58.0841 280.314 60.7922C280.314 63.5003 280.809 66.123 281.798 68.5078C282.788 70.8988 284.138 72.9908 285.836 74.784C287.541 76.5833 289.532 77.9984 291.823 79.0292C294.108 80.0599 296.576 80.5784 299.215 80.5784C301.853 80.5784 304.26 80.0599 306.569 79.0292C308.879 77.9984 310.888 76.5772 312.593 74.784C314.297 72.9908 315.641 70.8927 316.631 68.5078C317.62 66.123 318.115 63.5491 318.115 60.7922C318.115 58.0353 317.62 55.5224 316.631 53.1132C315.641 50.704 314.291 48.5814 312.593 46.7638ZM309.966 66.001C309.343 67.5991 308.494 68.9897 307.406 70.173C306.325 71.3562 305.079 72.2894 303.674 72.9786C302.269 73.6679 300.778 74.0094 299.208 74.0094C297.638 74.0094 296.154 73.6679 294.743 72.9786C293.338 72.2894 292.092 71.3562 291.01 70.173C289.929 68.9897 289.074 67.5991 288.451 66.001C287.828 64.403 287.516 62.6891 287.516 60.8654C287.516 59.0417 287.828 57.2485 288.451 55.62C289.074 53.9976 289.923 52.5825 291.01 51.3749C292.092 50.1672 293.338 49.2218 294.743 48.5326C296.148 47.8434 297.638 47.5018 299.208 47.5018C300.778 47.5018 302.263 47.8495 303.674 48.5326C305.079 49.2218 306.325 50.1733 307.406 51.3749C308.488 52.5825 309.343 53.9976 309.966 55.62C310.589 57.2424 310.901 58.9929 310.901 60.8654C310.901 62.7379 310.589 64.3969 309.966 66.001Z" fill="#2B286F"/>
<path d="M264.114 42.3357V44.074V99.8644L271.658 98.608V44.074V40.9329V39.158V35.4801L264.114 34.4371V42.3357Z" fill="#2B286F"/>
<path d="M659.418 33.2112V57.5291H646.987L648.215 64.031C648.905 63.8846 649.705 63.7748 650.615 63.6955C651.526 63.6223 652.405 63.5858 653.242 63.5858H659.412V99.8645L666.956 98.608V34.2664L659.412 33.2112H659.418Z" fill="#2B286F"/>
<path d="M216.459 58.5843H206.551V44.0801V35.4862L199.006 34.4432V99.8766L206.551 98.6202V64.647H211.432C212 64.647 212.562 64.6775 213.13 64.7385L214.706 64.9093L217.247 58.5843H216.459Z" fill="#2B286F"/>
<path d="M338.238 58.5843H333.803V35.4801L326.258 34.4371V99.8705L333.803 98.6141V64.6409H338.684C339.252 64.6409 339.814 64.6714 340.382 64.7324L341.958 64.9032L344.499 58.5782H338.238V58.5843Z" fill="#2B286F"/>
<path d="M462.832 77.4922C460.999 76.2418 458.849 75.2781 456.393 74.6011C453.931 73.9241 451.286 73.5825 448.458 73.5825C445.63 73.5825 443.039 73.9241 440.553 74.6011C438.067 75.2781 435.911 76.2418 434.078 77.4922C432.245 78.7425 430.791 80.2796 429.728 82.0972C428.659 83.9147 428.128 85.9946 428.128 88.3306C428.128 90.6667 428.659 92.7466 429.728 94.5641C430.797 96.3817 432.245 97.931 434.078 99.2057C435.911 100.48 438.067 101.462 440.553 102.139C443.033 102.817 445.672 103.158 448.458 103.158C451.244 103.158 453.937 102.817 456.393 102.139C458.855 101.462 460.999 100.48 462.832 99.2057C464.664 97.931 466.118 96.3817 467.181 94.5641C468.25 92.7466 468.782 90.6667 468.782 88.3306C468.782 85.9946 468.25 83.9147 467.181 82.0972C466.112 80.2796 464.664 78.7425 462.832 77.4922ZM460.639 91.7829C459.942 92.9112 459.002 93.8627 457.817 94.6495C456.631 95.4302 455.226 96.0097 453.602 96.3878C451.977 96.766 450.26 96.949 448.452 96.949C446.644 96.949 445.006 96.7599 443.406 96.3878C441.805 96.0158 440.4 95.4302 439.191 94.6495C437.981 93.8688 437.022 92.9112 436.301 91.7829C435.581 90.6545 435.22 89.3431 435.22 87.8366C435.22 86.4582 435.581 85.2383 436.301 84.1709C437.022 83.1096 437.981 82.2008 439.191 81.4506C440.4 80.7004 441.799 80.1332 443.406 79.7611C445.013 79.3891 446.686 79.2 448.452 79.2C450.217 79.2 451.977 79.3891 453.602 79.7611C455.226 80.1393 456.631 80.7004 457.817 81.4506C459.002 82.2008 459.942 83.1096 460.639 84.1709C461.335 85.2383 461.683 86.4582 461.683 87.8366C461.683 89.337 461.335 90.6545 460.639 91.7829Z" fill="#2B286F"/>
<path d="M397.572 42.3357V44.074H397.554V47.7275H384.56L385.788 54.2294C386.479 54.083 387.279 53.9732 388.189 53.8939C389.099 53.8207 389.979 53.7841 390.816 53.7841H397.548V67.6662H385.403C386.173 65.5192 386.564 63.232 386.564 60.7983C386.564 58.0903 386.069 55.5285 385.08 53.1193C384.09 50.7101 382.74 48.5875 381.042 46.7699C379.337 44.9462 377.334 43.519 375.018 42.4882C372.703 41.4574 370.254 40.939 367.663 40.939C365.073 40.939 362.557 41.4574 360.266 42.4882C357.981 43.5251 355.984 44.9523 354.279 46.7699C352.575 48.5936 351.231 50.7101 350.241 53.1193C349.252 55.5346 348.757 58.0903 348.757 60.7983C348.757 63.5064 349.252 66.1291 350.241 68.514C351.231 70.9049 352.581 72.997 354.279 74.7902C355.984 76.5895 357.975 78.0045 360.266 79.0353C362.55 80.0661 365.018 80.5845 367.663 80.5845C370.309 80.5845 372.709 80.0661 375.018 79.0353C377.328 78.0045 379.337 76.5834 381.042 74.7902C382.612 73.1373 383.864 71.216 384.829 69.0629L385.794 74.1619C386.485 74.0156 387.285 73.9058 388.195 73.8265C389.105 73.7533 389.985 73.7167 390.822 73.7167H397.554V99.8583L405.098 98.6019V44.0679H405.116V35.474L397.572 34.431V42.3296V42.3357ZM378.415 66.0072C377.792 67.6052 376.937 68.9958 375.855 70.1791C374.774 71.3624 373.528 72.2956 372.123 72.9848C370.718 73.674 369.227 74.0156 367.657 74.0156C366.087 74.0156 364.603 73.674 363.192 72.9848C361.787 72.2956 360.541 71.3624 359.459 70.1791C358.378 68.9958 357.523 67.6052 356.9 66.0072C356.277 64.4091 355.965 62.6952 355.965 60.8715C355.965 59.0478 356.277 57.2547 356.9 55.6261C357.523 54.0037 358.372 52.5887 359.459 51.381C360.541 50.1734 361.787 49.228 363.192 48.5387C364.597 47.8495 366.087 47.508 367.657 47.508C369.227 47.508 370.712 47.8556 372.123 48.5387C373.528 49.228 374.774 50.1795 375.855 51.381C376.937 52.5887 377.792 54.0037 378.415 55.6261C379.038 57.2486 379.35 58.9991 379.35 60.8715C379.35 62.744 379.038 64.403 378.415 66.0072Z" fill="#2B286F"/>
<path d="M535.74 52.5033H531.305V35.4801L523.761 34.4371V74.8329L531.305 74.0949V58.566H536.186C536.754 58.566 537.316 58.5965 537.884 58.6575L539.46 58.8283L542.002 52.5033H535.74Z" fill="#2B286F"/>
<path d="M461.916 42.3357V47.9471H458.263H451.977H445.275L446.503 54.449C447.194 54.3026 447.994 54.1928 448.904 54.1135C449.814 54.0403 450.694 54.0037 451.531 54.0037H458.257H461.916V73.1312L469.46 72.3931V35.4801L461.916 34.4371V42.3357Z" fill="#2B286F"/>
<path d="M245.842 64.1591C244.461 62.0182 243.46 59.6883 242.849 57.1815C242.232 54.6685 241.926 51.9604 241.926 49.0572V41.2196L233.875 40.2681C233.875 40.2681 234.29 48.0203 234.131 52.668C234.003 54.5039 233.765 56.2605 233.386 57.9195C232.818 60.4324 231.871 62.7562 230.539 64.8971C229.208 67.0379 227.43 69.0324 225.213 70.8805C222.995 72.7286 220.258 74.4608 217.002 76.0893L221.81 81.5543C226.098 79.3403 229.562 76.8151 232.201 73.9851C234.84 71.155 236.899 68.087 238.377 64.7873C239.855 67.8918 241.877 70.7463 244.443 73.3568C247.009 75.9673 250.436 78.4559 254.724 80.8163L259.532 75.3513C256.276 73.7289 253.527 71.9906 251.285 70.1425C249.043 68.2944 247.229 66.2999 245.848 64.1591H245.842Z" fill="#2B286F"/>
<path d="M434.542 57.0289C435.972 59.2918 437.969 61.4875 440.535 63.604C443.1 65.7205 446.454 67.8369 450.596 69.9534L455.404 64.4884C452.148 63.1587 449.399 61.7193 447.157 60.1701C444.915 58.6209 443.113 57.0289 441.757 55.4065C440.4 53.7841 439.429 52.1312 438.837 50.46C438.543 49.6305 438.329 48.8132 438.183 48.0142C438.03 47.1603 437.987 46.2881 437.987 45.4159V37.4319L430.254 36.4987C430.254 36.4987 430.645 44.934 430.187 47.9288V47.9532C430.187 47.9715 430.18 47.9898 430.174 48.0081C430.064 49.3316 429.82 50.6186 429.441 51.8689C428.898 53.6438 427.975 55.3638 426.668 57.0411C425.361 58.7184 423.607 60.3409 421.414 61.9145C419.221 63.4881 416.472 65.019 413.167 66.4951L417.975 71.9601C422.361 69.746 425.861 67.3795 428.482 64.8666C431.097 62.3536 433.119 59.7492 434.548 57.0411L434.542 57.0289Z" fill="#2B286F"/>
<path d="M526.571 77.2665H486.766L487.957 83.9879C488.648 83.8415 489.448 83.7073 490.364 83.5793C491.274 83.4573 492.154 83.3963 492.991 83.3963H523.761V100.011L531.305 98.7543V77.2604H526.571V77.2665Z" fill="#2B286F"/>
<path d="M567.249 67.2575C569.32 69.4959 572.106 71.6307 575.606 73.6435L580.34 68.1785C576.986 66.5561 574.347 64.7934 572.423 62.8965C570.499 60.9996 569.045 59.1088 568.062 57.2119C567.072 55.315 566.461 53.4974 566.211 51.7469C565.966 50.0025 565.838 48.4594 565.838 47.1298V37.1086L557.903 36.1571C558.135 37.7124 558.257 39.28 558.257 40.8536L558.288 44.2326V47.8739C558.288 49.2035 558.178 50.7406 557.958 52.4911C557.738 54.2416 557.157 56.0592 556.217 57.956C555.282 59.8529 553.865 61.7498 551.965 63.6406C550.065 65.5375 547.463 67.2941 544.164 68.9226L548.898 74.3876C552.448 72.4663 555.294 70.301 557.445 67.8857C559.589 65.4765 561.256 62.988 562.435 60.4263C563.572 62.7379 565.172 65.019 567.243 67.2575H567.249Z" fill="#2B286F"/>
<path d="M576.278 55.6505C577.188 55.5773 578.068 55.5408 578.905 55.5408H584.482V82.7315L591.953 81.475V35.4801L584.482 34.4371V49.4841H572.649L573.877 55.986C574.568 55.8396 575.368 55.7298 576.278 55.6505Z" fill="#2B286F"/>
<path d="M604.525 41.8722V39.7558V37.9809V34.303L597.054 33.26V41.1586V41.8722V82.7315L604.525 81.4751V41.8722Z" fill="#2B286F"/>
<path d="M598.532 91.1546H568.88V76.9188L560.353 75.8636L560.969 78.6815C561.116 79.3586 561.189 80.0478 561.189 80.7431V97.2783H605.35V90.0384L602.637 90.6728C601.294 90.9899 599.913 91.1485 598.532 91.1485V91.1546Z" fill="#2B286F"/>
<path d="M515.49 58.5844C515.49 54.3087 513.675 50.4296 510.737 47.5812H518.874V41.305C518.874 41.305 517.676 41.6771 514.14 41.6771H502.594V34.2176L494.543 33.2661C494.781 34.8214 494.903 36.389 494.903 37.9626V41.6771H484.921C481.439 41.6771 478.263 41.1586 478.263 41.1586L479.411 47.5812H486.393C483.455 50.4296 481.641 54.3087 481.641 58.5844C481.641 67.3369 489.216 74.4304 498.562 74.4304C507.909 74.4304 515.483 67.3369 515.483 58.5844H515.49ZM488.251 58.4624C488.251 53.1255 492.869 48.795 498.568 48.795C504.268 48.795 508.886 53.1255 508.886 58.4624C508.886 63.7993 504.268 68.1298 498.568 68.1298C492.869 68.1298 488.251 63.7993 488.251 58.4624Z" fill="#2B286F"/>
<path d="M644.256 74.3877H624.287V63.7505H637.231L641.177 63.7627H642.063C642.625 63.7627 643.187 63.7932 643.743 63.8603L645.234 64.031L644.006 57.5475L637.231 57.6999H624.287V47.0627H639.516L643.462 47.0749H644.348C644.91 47.0749 645.472 47.1054 646.028 47.1725L647.573 47.3494L646.462 41.4941L646.339 40.8658L642.888 40.9329L641.495 40.9573C633.23 41.0732 624.959 40.9329 616.7 40.9329H616.596V80.5175H644.262H647.109H647.995C648.557 80.5175 649.119 80.548 649.675 80.6151L650.835 80.7492L649.608 74.2718L644.256 74.3999V74.3877Z" fill="#2B286F"/>
<path d="M119.201 68.4104C128.621 68.4104 136.263 60.7862 136.263 51.375L102.249 53.2597C103.19 61.7804 110.423 68.4043 119.201 68.4043V68.4104Z" fill="url(#paint0_linear_201_3)"/>
<path d="M119.201 34.3457C110.416 34.3457 103.19 40.9757 102.249 49.4903L136.263 51.375C136.263 41.9698 128.627 34.3396 119.201 34.3396V34.3457Z" fill="url(#paint1_linear_201_3)"/>
<path d="M85.0773 34.3457C76.9526 34.3457 70.1536 40.0242 68.437 47.6178L102.029 49.4781C101.082 40.9635 93.8556 34.3457 85.0773 34.3457Z" fill="url(#paint2_linear_201_3)"/>
<path d="M85.0773 68.4103C93.8556 68.4103 101.082 61.7865 102.029 53.278L68.437 55.1382C70.1536 62.7319 76.9465 68.4103 85.0773 68.4103Z" fill="url(#paint3_linear_201_3)"/>
<path d="M50.9597 34.3456C43.5131 34.3456 37.1844 39.1091 34.8569 45.7574L67.5877 47.575C65.8528 39.9996 59.0721 34.3517 50.9597 34.3517V34.3456Z" fill="url(#paint4_linear_201_3)"/>
<path d="M50.9601 68.4103C59.0726 68.4103 65.8533 62.7563 67.5882 55.187L34.8574 57.0046C37.1849 63.6468 43.5136 68.4164 50.9601 68.4164V68.4103Z" fill="url(#paint5_linear_201_3)"/>
<path d="M51.9129 68.4104C42.4931 68.4104 34.8511 76.0345 34.8511 85.4458L68.8647 83.5611C67.924 75.0404 60.6912 68.4165 51.9129 68.4165V68.4104Z" fill="url(#paint6_linear_201_3)"/>
<path d="M51.9129 102.481C60.6973 102.481 67.924 95.8511 68.8647 87.3365L34.8511 85.4518C34.8511 94.8569 42.487 102.487 51.9129 102.487V102.481Z" fill="url(#paint7_linear_201_3)"/>
<path d="M86.0363 102.481C94.161 102.481 100.96 96.8027 102.677 89.209L69.0845 87.3488C70.0313 95.8634 77.258 102.481 86.0363 102.481Z" fill="url(#paint8_linear_201_3)"/>
<path d="M86.0363 68.4104C77.258 68.4104 70.0313 75.0343 69.0845 83.5428L102.677 81.6825C100.96 74.0889 94.1671 68.4104 86.0363 68.4104Z" fill="url(#paint9_linear_201_3)"/>
<path d="M120.154 102.481C127.601 102.481 133.929 97.7176 136.257 91.0693L103.526 89.2517C105.261 96.8271 112.042 102.475 120.154 102.475V102.481Z" fill="url(#paint10_linear_201_3)"/>
<path d="M120.154 68.4104C112.042 68.4104 105.261 74.0645 103.526 81.6337L136.257 79.8161C133.929 73.174 127.601 68.4043 120.154 68.4043V68.4104Z" fill="url(#paint11_linear_201_3)"/>
<path d="M119.201 136.546C128.621 136.546 136.263 128.922 136.263 119.51L102.249 121.395C103.19 129.916 110.423 136.54 119.201 136.54V136.546Z" fill="url(#paint12_linear_201_3)"/>
<path d="M119.201 102.481C110.416 102.481 103.19 109.111 102.249 117.626L136.263 119.51C136.263 110.105 128.627 102.475 119.201 102.475V102.481Z" fill="url(#paint13_linear_201_3)"/>
<path d="M85.0773 102.481C76.9526 102.481 70.1536 108.16 68.437 115.753L102.029 117.613C101.082 109.099 93.8556 102.481 85.0773 102.481Z" fill="url(#paint14_linear_201_3)"/>
<path d="M85.0773 136.546C93.8556 136.546 101.082 129.922 102.029 121.413L68.437 123.274C70.1536 130.867 76.9465 136.546 85.0773 136.546Z" fill="url(#paint15_linear_201_3)"/>
<path d="M50.9601 102.481C43.5136 102.481 37.1849 107.245 34.8574 113.893L67.5882 115.71C65.8533 108.135 59.0726 102.487 50.9601 102.487V102.481Z" fill="url(#paint16_linear_201_3)"/>
<path d="M50.9601 136.546C59.0726 136.546 65.8533 130.892 67.5882 123.323L34.8574 125.14C37.1849 131.782 43.5136 136.552 50.9601 136.552V136.546Z" fill="url(#paint17_linear_201_3)"/>
<path d="M162.374 115.977L153.74 136.156H156.696L159.209 130.206H167.783L170.464 136.156H173.407L164.398 115.977H162.374ZM160.35 127.655L163.359 120.388L166.601 127.655H160.35Z" fill="#2B286F"/>
<path d="M182.262 125.378L180.065 124.078C179.079 123.5 178.363 122.951 177.915 122.427C177.467 121.902 177.247 121.342 177.247 120.74C177.247 120.06 177.551 119.506 178.154 119.07C178.757 118.635 179.527 118.421 180.471 118.421C182.136 118.421 183.701 119.118 185.146 120.507V117.246C183.742 116.304 182.208 115.833 180.53 115.833C178.853 115.833 177.348 116.328 176.249 117.312C175.151 118.296 174.602 119.583 174.602 121.163C174.602 122.218 174.894 123.148 175.473 123.959C176.052 124.769 177.032 125.592 178.399 126.427L180.584 127.75C182.351 128.847 183.229 130.004 183.229 131.226C183.229 131.977 182.93 132.609 182.327 133.109C181.73 133.61 180.978 133.86 180.077 133.86C178.035 133.86 176.237 132.877 174.679 130.91V134.558C176.309 135.774 178.118 136.388 180.1 136.388C181.826 136.388 183.229 135.887 184.31 134.88C185.39 133.872 185.928 132.567 185.928 130.957C185.928 128.698 184.704 126.838 182.25 125.378H182.262Z" fill="#2B286F"/>
<path d="M202.884 115.977L194.25 136.156H197.206L199.72 130.206H208.293L210.974 136.156H213.917L204.908 115.977H202.884ZM200.86 127.655L203.869 120.388L207.111 127.655H200.86Z" fill="#2B286F"/>
<path d="M352.327 134.725C351.903 134.153 351.342 133.294 350.643 132.156C349.533 130.343 348.667 129.08 348.052 128.346C347.437 127.619 346.81 127.047 346.165 126.624C347.258 126.2 348.1 125.568 348.685 124.716C349.27 123.863 349.562 122.856 349.562 121.688C349.562 119.971 348.965 118.612 347.771 117.61C346.577 116.603 344.965 116.102 342.929 116.102H337.896V136.168H340.774V127.434H341.52C342.463 127.434 343.132 127.542 343.526 127.756C343.926 127.971 344.374 128.322 344.864 128.811C345.359 129.3 345.902 129.956 346.494 130.779L347.455 132.346L348.344 133.813L348.906 134.606C348.989 134.719 349.049 134.802 349.079 134.85L349.956 136.174H353.378L352.315 134.737L352.327 134.725ZM344.87 124.495C344.326 124.746 343.329 124.871 341.872 124.871H340.78V118.534H341.645C343.055 118.534 344.064 118.641 344.673 118.85C345.282 119.059 345.753 119.422 346.088 119.935C346.422 120.448 346.589 121.02 346.589 121.652C346.589 122.284 346.44 122.868 346.135 123.369C345.831 123.869 345.413 124.245 344.87 124.495Z" fill="#2B286F"/>
<path d="M189.128 119.124V120.108V120.459V136.162H192.006V120.459V120.108V118.54V117.801V116.269L189.128 115.833V119.124Z" fill="#2B286F"/>
<path d="M232.086 118.957V120.108V120.603V131.679L218.533 116.096H216.205V136.162H218.909V120.704L232.343 136.162H234.821V120.603V120.108V118.373V117.634V116.102L232.086 115.667V118.957Z" fill="#2B286F"/>
<path d="M298.252 118.957V120.108V131.679L284.699 116.096H282.37V136.162H285.075V120.704L298.509 136.162H300.986V120.603V120.108V118.373V117.634V116.102L298.252 115.667V118.957Z" fill="#2B286F"/>
<path d="M314.318 116.09H306.282C304.831 116.09 303.512 115.875 303.512 115.875L303.989 118.623H310.461V136.162H313.351V118.623H320.414V115.935C320.414 115.935 319.919 116.09 318.444 116.09H314.312H314.318Z" fill="#2B286F"/>
<path d="M252.165 131.619C250.804 130.2 250.123 128.394 250.123 126.188C250.123 123.983 250.816 122.188 252.195 120.74C253.58 119.291 255.312 118.564 257.407 118.564C259.127 118.564 260.882 119.047 262.667 120L263.67 117.491C261.324 116.388 259.192 115.839 257.276 115.839C254.494 115.839 252.153 116.835 250.26 118.826C248.362 120.817 247.418 123.273 247.418 126.194C247.418 128.03 247.83 129.741 248.66 131.321C249.49 132.901 250.613 134.141 252.034 135.041C253.455 135.941 255.186 136.388 257.228 136.388C259.742 136.388 261.957 135.816 263.873 134.665V131.506C261.766 133.002 259.598 133.747 257.383 133.747C255.168 133.747 253.526 133.038 252.165 131.619Z" fill="#2B286F"/>
<path d="M333.09 133.574H331.263H325.961V127.339H332.343L332.713 127.345C332.946 127.345 333.179 127.357 333.412 127.387L334.057 127.458L333.549 124.77H330.731H325.961V118.653H330.051L332.612 118.659H332.982C333.215 118.659 333.448 118.671 333.681 118.701L334.32 118.772L333.812 116.096H323.083V136.132H332.922L333.293 136.138C333.525 136.138 333.758 136.15 333.991 136.179L334.642 136.251L334.134 133.574H333.096H333.09Z" fill="#2B286F"/>
<path d="M277.659 133.574H275.832H270.53V127.339H276.913L277.283 127.345C277.516 127.345 277.749 127.357 277.981 127.387L278.626 127.458L278.119 124.77H275.301H270.53V118.653H274.62L277.181 118.659H277.552C277.784 118.659 278.017 118.671 278.25 118.701L278.889 118.772L278.381 116.096H267.652V136.132H277.492L277.862 136.138C278.095 136.138 278.328 136.15 278.561 136.179L279.211 136.251L278.704 133.574H277.665H277.659Z" fill="#2B286F"/>
<path d="M461.218 115.392C458.394 115.392 456.053 116.394 454.208 118.397C452.357 120.4 451.438 122.928 451.438 125.986C451.438 129.044 452.357 131.44 454.19 133.419C456.023 135.399 458.322 136.388 461.074 136.388C463.827 136.388 466.352 135.399 468.251 133.419C470.15 131.44 471.093 128.943 471.093 125.926C471.093 122.91 470.156 120.4 468.275 118.397C466.394 116.394 464.042 115.392 461.218 115.392ZM466.251 131.339C464.914 132.805 463.248 133.533 461.248 133.533C459.247 133.533 457.6 132.817 456.274 131.381C454.949 129.944 454.286 128.144 454.286 125.98C454.286 123.816 454.949 121.914 456.268 120.483C457.588 119.047 459.271 118.331 461.325 118.331C463.379 118.331 464.914 119.059 466.251 120.507C467.588 121.956 468.257 123.744 468.257 125.872C468.257 128.001 467.588 129.878 466.251 131.345V131.339Z" fill="#2B286F"/>
<path d="M385.797 115.392C382.973 115.392 380.633 116.394 378.788 118.397C376.937 120.4 376.018 122.928 376.018 125.986C376.018 129.044 376.937 131.44 378.77 133.419C380.603 135.399 382.902 136.388 385.654 136.388C388.406 136.388 390.932 135.399 392.831 133.419C394.729 131.44 395.673 128.943 395.673 125.926C395.673 122.91 394.735 120.4 392.855 118.397C390.974 116.394 388.621 115.392 385.797 115.392ZM390.831 131.339C389.493 132.805 387.827 133.533 385.827 133.533C383.827 133.533 382.179 132.817 380.854 131.381C379.528 129.944 378.866 128.144 378.866 125.98C378.866 123.816 379.528 121.914 380.848 120.483C382.167 119.047 383.851 118.331 385.905 118.331C387.959 118.331 389.493 119.059 390.831 120.507C392.168 121.956 392.837 123.744 392.837 125.872C392.837 128.001 392.168 129.878 390.831 131.345V131.339Z" fill="#2B286F"/>
<path d="M411.566 131.947C410.456 130.135 409.59 128.871 408.975 128.138C408.36 127.41 407.733 126.838 407.089 126.415C408.181 125.992 409.023 125.36 409.608 124.507C410.193 123.655 410.486 122.647 410.486 121.479C410.486 119.762 409.889 118.403 408.695 117.401C407.501 116.394 405.888 115.893 403.853 115.893H398.819V135.959H401.697V127.226H402.443C403.387 127.226 404.056 127.333 404.45 127.548C404.85 127.762 405.297 128.114 405.787 128.603C406.283 129.092 406.826 129.747 407.417 130.57L408.378 132.138L409.268 133.604L409.829 134.397C409.913 134.51 409.972 134.594 410.002 134.642L410.88 135.965H414.301L413.238 134.528C412.814 133.956 412.253 133.098 411.555 131.959L411.566 131.947ZM405.793 124.293C405.25 124.543 404.253 124.668 402.796 124.668H401.703V118.331H402.569C403.978 118.331 404.987 118.439 405.596 118.647C406.205 118.856 406.677 119.22 407.011 119.732C407.345 120.245 407.512 120.817 407.512 121.449C407.512 122.081 407.363 122.665 407.059 123.166C406.754 123.667 406.336 124.042 405.793 124.293Z" fill="#2B286F"/>
<path d="M442.381 129.717L436.78 115.887H434.058L428.481 129.717L422.947 115.887H420.045L428.147 136.036H428.762L435.401 119.72L441.975 136.036H442.608L450.728 115.887H447.862L442.381 129.717Z" fill="#2B286F"/>
<path d="M484.151 124.126L477.476 115.887H474.753V135.953H477.625V120.34L483.876 128.096H484.414L490.587 120.34V135.953H493.483V115.887H490.79L484.151 124.126Z" fill="#2B286F"/>
<path d="M547.737 125.169L545.54 123.869C544.555 123.291 543.838 122.743 543.39 122.218C542.943 121.694 542.722 121.133 542.722 120.531C542.722 119.852 543.026 119.297 543.629 118.862C544.232 118.427 545.002 118.212 545.946 118.212C547.611 118.212 549.176 118.91 550.621 120.299V117.038C549.218 116.096 547.683 115.625 546.005 115.625C544.328 115.625 542.823 116.12 541.725 117.103C540.626 118.087 540.077 119.375 540.077 120.954C540.077 122.01 540.369 122.94 540.948 123.75C541.527 124.561 542.507 125.384 543.874 126.218L546.059 127.542C547.826 128.639 548.704 129.795 548.704 131.017C548.704 131.768 548.406 132.4 547.803 132.901C547.205 133.402 546.453 133.652 545.552 133.652C543.51 133.652 541.713 132.668 540.154 130.701V134.349C541.784 135.566 543.593 136.18 545.576 136.18C547.301 136.18 548.704 135.679 549.785 134.671C550.865 133.664 551.403 132.358 551.403 130.749C551.403 128.49 550.179 126.63 547.725 125.169H547.737Z" fill="#2B286F"/>
<path d="M570.64 125.169L568.443 123.869C567.457 123.291 566.741 122.743 566.293 122.218C565.845 121.694 565.624 121.133 565.624 120.531C565.624 119.852 565.929 119.297 566.532 118.862C567.135 118.427 567.905 118.212 568.849 118.212C570.514 118.212 572.079 118.91 573.523 120.299V117.038C572.12 116.096 570.586 115.625 568.908 115.625C567.231 115.625 565.726 116.12 564.627 117.103C563.529 118.087 562.979 119.375 562.979 120.954C562.979 122.01 563.272 122.94 563.851 123.75C564.43 124.561 565.409 125.384 566.777 126.218L568.962 127.542C570.729 128.639 571.607 129.795 571.607 131.017C571.607 131.768 571.308 132.4 570.705 132.901C570.108 133.402 569.356 133.652 568.454 133.652C566.413 133.652 564.615 132.668 563.057 130.701V134.349C564.687 135.566 566.496 136.18 568.478 136.18C570.204 136.18 571.607 135.679 572.688 134.671C573.768 133.664 574.306 132.358 574.306 130.749C574.306 128.49 573.082 126.63 570.628 125.169H570.64Z" fill="#2B286F"/>
<path d="M628.775 117.246C627.258 116.43 625.204 116.018 622.607 116.018H616.165V136.054H622.213C623.909 136.054 625.055 136.007 625.658 135.905C626.261 135.804 626.924 135.607 627.64 135.309C628.87 134.82 629.951 134.099 630.882 133.139C631.796 132.209 632.495 131.13 632.99 129.908C633.48 128.68 633.73 127.398 633.73 126.057C633.73 124.179 633.283 122.445 632.387 120.859C631.491 119.267 630.291 118.063 628.775 117.246ZM628.87 131.261C628.452 131.691 627.987 132.054 627.479 132.346C626.972 132.638 626.339 132.883 625.587 133.074C624.828 133.264 623.766 133.36 622.398 133.36H618.9V118.826H622.321C623.634 118.826 624.589 118.88 625.181 118.981C625.772 119.082 626.399 119.291 627.061 119.613C627.724 119.929 628.309 120.334 628.817 120.829C630.202 122.152 630.894 123.863 630.894 125.962C630.894 128.06 630.22 129.866 628.87 131.261Z" fill="#2B286F"/>
<path d="M528.625 118.933V120.084V131.655L515.072 116.072H512.744V136.138H515.448V120.686L528.882 136.138H531.36V120.579V120.084V118.349V117.61V116.078L528.625 115.649V118.933Z" fill="#2B286F"/>
<path d="M586.76 116.054H578.724C577.273 116.054 575.954 115.839 575.954 115.839L576.431 118.588H582.903V136.126H585.793V118.588H592.856V115.899C592.856 115.899 592.361 116.054 590.886 116.054H586.754H586.76Z" fill="#2B286F"/>
<path d="M371.707 124.036H371.146L368.961 124.048H365.402V118.445H371.528L371.898 118.451C372.131 118.451 372.364 118.462 372.597 118.492L373.236 118.564L372.728 115.887H362.53V135.953H365.408V126.6H370.835H371.546H371.916C372.149 126.6 372.382 126.612 372.615 126.641L373.253 126.713L372.746 124.036H371.719H371.707Z" fill="#2B286F"/>
<path d="M507.794 133.294H505.967H500.665V127.059H507.047L507.418 127.065C507.65 127.065 507.883 127.077 508.116 127.106L508.761 127.178L508.253 124.489H505.435H500.665V118.373H504.755L507.316 118.379H507.686C507.919 118.379 508.152 118.391 508.385 118.421L509.024 118.492L508.516 115.816H505.71H497.787V135.852H507.627L507.997 135.858C508.23 135.858 508.462 135.87 508.695 135.899L509.346 135.971L508.839 133.294H507.8H507.794Z" fill="#2B286F"/>
<path d="M654.514 133.574H652.687H647.385V127.339H653.768L654.138 127.345C654.371 127.345 654.604 127.357 654.836 127.387L655.481 127.458L654.974 124.77H652.156H647.385V118.653H651.475L654.036 118.659H654.407C654.639 118.659 654.872 118.671 655.105 118.701L655.744 118.772L655.236 116.096H652.43H644.507V136.132H654.347L654.717 136.138C654.95 136.138 655.183 136.15 655.416 136.179L656.066 136.251L655.559 133.574H654.52H654.514Z" fill="#2B286F"/>
<path d="M609.263 123.583V127.273C609.263 128.853 609.138 129.968 608.887 130.618C608.636 131.267 608.23 131.834 607.663 132.311C606.588 133.199 605.197 133.646 603.49 133.646C602.29 133.646 601.251 133.425 600.367 132.978C599.484 132.531 598.827 131.941 598.397 131.202C597.967 130.463 597.752 129.151 597.752 127.267V116.287L594.862 115.875V127.238C594.862 128.853 594.97 130.045 595.185 130.802C595.4 131.559 595.674 132.197 596.003 132.722C596.331 133.246 596.737 133.717 597.221 134.135C598.803 135.494 600.905 136.173 603.52 136.173C606.135 136.173 608.171 135.488 609.765 134.117C610.242 133.706 610.648 133.241 610.983 132.716C611.311 132.191 611.592 131.542 611.819 130.755C612.046 129.968 612.159 128.805 612.159 127.267V123.577V116.287L609.269 115.875V123.571L609.263 123.583Z" fill="#2B286F"/>
<path d="M664.963 127.583L662.772 126.254C661.399 125.413 660.414 124.591 659.835 123.78C659.249 122.969 658.963 122.033 658.963 120.978C658.963 119.392 659.512 118.105 660.617 117.115C661.721 116.126 663.148 115.631 664.91 115.631C666.671 115.631 668.14 116.102 669.543 117.05V120.322C668.092 118.927 666.528 118.23 664.85 118.23C663.906 118.23 663.13 118.451 662.527 118.886C661.924 119.321 661.62 119.881 661.62 120.561C661.62 121.163 661.841 121.729 662.288 122.254C662.736 122.778 663.453 123.333 664.444 123.911L666.647 125.217C669.107 126.683 670.337 128.549 670.337 130.82C670.337 132.436 669.793 133.747 668.713 134.755C667.632 135.762 666.223 136.269 664.492 136.269C662.497 136.269 660.688 135.661 659.052 134.433V130.773C660.611 132.746 662.414 133.729 664.468 133.729C665.369 133.729 666.128 133.479 666.725 132.978C667.322 132.478 667.626 131.846 667.626 131.089C667.626 129.86 666.742 128.698 664.969 127.601L664.963 127.583Z" fill="#2B286F"/>
<path d="M637.618 119.22V120.203V120.555V136.251H640.495V120.555V120.203V118.635V117.896V116.364L637.618 115.929V119.22Z" fill="#2B286F"/>
<path d="M535.031 118.046L535.624 121.651H537.108L537.725 118.046V114.838H535.031V118.046Z" fill="#2B286F"/>
<defs>
<linearGradient id="paint0_linear_201_3" x1="58.0032" y1="160.528" x2="136.721" y2="23.9749" gradientUnits="userSpaceOnUse">
<stop offset="0.24" stop-color="#2D2380"/>
<stop offset="0.92" stop-color="#6BB780"/>
</linearGradient>
<linearGradient id="paint1_linear_201_3" x1="55.5719" y1="159.125" x2="134.289" y2="22.572" gradientUnits="userSpaceOnUse">
<stop offset="0.24" stop-color="#2D2380"/>
<stop offset="0.92" stop-color="#6BB780"/>
</linearGradient>
<linearGradient id="paint2_linear_201_3" x1="29.5302" y1="144.115" x2="108.248" y2="7.56164" gradientUnits="userSpaceOnUse">
<stop offset="0.24" stop-color="#2D2380"/>
<stop offset="0.92" stop-color="#6BB780"/>
</linearGradient>
<linearGradient id="paint3_linear_201_3" x1="32.9389" y1="146.079" x2="111.657" y2="9.52561" gradientUnits="userSpaceOnUse">
<stop offset="0.24" stop-color="#2D2380"/>
<stop offset="0.92" stop-color="#6BB780"/>
</linearGradient>
<linearGradient id="paint4_linear_201_3" x1="3.40287" y1="129.056" x2="82.1204" y2="-7.49767" gradientUnits="userSpaceOnUse">
<stop offset="0.24" stop-color="#2D2380"/>
<stop offset="0.92" stop-color="#6BB780"/>
</linearGradient>
<linearGradient id="paint5_linear_201_3" x1="7.95439" y1="131.672" x2="86.6659" y2="-4.88096" gradientUnits="userSpaceOnUse">
<stop offset="0.24" stop-color="#2D2380"/>
<stop offset="0.92" stop-color="#6BB780"/>
</linearGradient>
<linearGradient id="paint6_linear_201_3" x1="19.4386" y1="138.296" x2="98.1501" y2="1.74296" gradientUnits="userSpaceOnUse">
<stop offset="0.24" stop-color="#2D2380"/>
<stop offset="0.92" stop-color="#6BB780"/>
</linearGradient>
<linearGradient id="paint7_linear_201_3" x1="21.8638" y1="139.699" x2="100.581" y2="3.14569" gradientUnits="userSpaceOnUse">
<stop offset="0.24" stop-color="#2D2380"/>
<stop offset="0.92" stop-color="#6BB780"/>
</linearGradient>
<linearGradient id="paint8_linear_201_3" x1="47.9054" y1="154.71" x2="126.623" y2="18.1562" gradientUnits="userSpaceOnUse">
<stop offset="0.24" stop-color="#2D2380"/>
<stop offset="0.92" stop-color="#6BB780"/>
</linearGradient>
<linearGradient id="paint9_linear_201_3" x1="44.5028" y1="152.746" x2="123.22" y2="16.1922" gradientUnits="userSpaceOnUse">
<stop offset="0.24" stop-color="#2D2380"/>
<stop offset="0.92" stop-color="#6BB780"/>
</linearGradient>
<linearGradient id="paint10_linear_201_3" x1="74.0327" y1="169.769" x2="152.75" y2="33.2154" gradientUnits="userSpaceOnUse">
<stop offset="0.24" stop-color="#2D2380"/>
<stop offset="0.92" stop-color="#6BB780"/>
</linearGradient>
<linearGradient id="paint11_linear_201_3" x1="69.4878" y1="167.146" x2="148.205" y2="30.5988" gradientUnits="userSpaceOnUse">
<stop offset="0.24" stop-color="#2D2380"/>
<stop offset="0.92" stop-color="#6BB780"/>
</linearGradient>
<linearGradient id="paint12_linear_201_3" x1="87.5513" y1="177.564" x2="166.269" y2="41.0103" gradientUnits="userSpaceOnUse">
<stop offset="0.24" stop-color="#2D2380"/>
<stop offset="0.92" stop-color="#6BB780"/>
</linearGradient>
<linearGradient id="paint13_linear_201_3" x1="85.1261" y1="176.161" x2="163.838" y2="39.6074" gradientUnits="userSpaceOnUse">
<stop offset="0.24" stop-color="#2D2380"/>
<stop offset="0.92" stop-color="#6BB780"/>
</linearGradient>
<linearGradient id="paint14_linear_201_3" x1="59.0845" y1="161.15" x2="137.796" y2="24.597" gradientUnits="userSpaceOnUse">
<stop offset="0.24" stop-color="#2D2380"/>
<stop offset="0.92" stop-color="#6BB780"/>
</linearGradient>
<linearGradient id="paint15_linear_201_3" x1="62.4871" y1="163.114" x2="141.205" y2="26.561" gradientUnits="userSpaceOnUse">
<stop offset="0.24" stop-color="#2D2380"/>
<stop offset="0.92" stop-color="#6BB780"/>
</linearGradient>
<linearGradient id="paint16_linear_201_3" x1="32.9576" y1="146.091" x2="111.669" y2="9.53781" gradientUnits="userSpaceOnUse">
<stop offset="0.24" stop-color="#2D2380"/>
<stop offset="0.92" stop-color="#6BB780"/>
</linearGradient>
<linearGradient id="paint17_linear_201_3" x1="37.5025" y1="148.708" x2="116.22" y2="12.1545" gradientUnits="userSpaceOnUse">
<stop offset="0.24" stop-color="#2D2380"/>
<stop offset="0.92" stop-color="#6BB780"/>
</linearGradient>
</defs>
</svg>
