<svg width="289" height="70" viewBox="0 0 289 70" fill="none" xmlns="http://www.w3.org/2000/svg">
<path d="M76.4745 19.0721C75.7738 18.3212 74.9501 17.7335 73.9982 17.3091C73.0464 16.8846 72.0392 16.6711 70.9744 16.6711C69.9095 16.6711 68.8748 16.8846 67.9355 17.3091C66.9962 17.736 66.1749 18.3237 65.4742 19.0721C64.7735 19.8231 64.221 20.6945 63.8141 21.6866C63.4073 22.6811 63.2039 23.7334 63.2039 24.8485C63.2039 25.9636 63.4073 27.0436 63.8141 28.0255C64.221 29.01 64.776 29.8715 65.4742 30.6099C66.1749 31.3507 66.9937 31.9334 67.9355 32.3579C68.8748 32.7823 69.8894 32.9958 70.9744 32.9958C72.0593 32.9958 73.0489 32.7823 73.9982 32.3579C74.9475 31.9334 75.7738 31.3482 76.4745 30.6099C77.1752 29.8715 77.7277 29.0075 78.1346 28.0255C78.5415 27.0436 78.7449 25.9837 78.7449 24.8485C78.7449 23.7133 78.5415 22.6786 78.1346 21.6866C77.7277 20.6945 77.1727 19.8205 76.4745 19.0721ZM75.3946 26.9933C75.1384 27.6513 74.7868 28.224 74.3423 28.7112C73.8977 29.1984 73.3854 29.5827 72.8078 29.8665C72.2301 30.1503 71.6173 30.2909 70.9719 30.2909C70.3264 30.2909 69.7161 30.1503 69.136 29.8665C68.5583 29.5827 68.046 29.1984 67.6015 28.7112C67.1569 28.224 66.8053 27.6513 66.5492 26.9933C66.293 26.3353 66.1649 25.6296 66.1649 24.8787C66.1649 24.1277 66.293 23.3894 66.5492 22.7188C66.8053 22.0507 67.1544 21.4681 67.6015 20.9708C68.046 20.4735 68.5583 20.0842 69.136 19.8004C69.7136 19.5167 70.3264 19.376 70.9719 19.376C71.6173 19.376 72.2276 19.5192 72.8078 19.8004C73.3854 20.0842 73.8977 20.476 74.3423 20.9708C74.7868 21.4681 75.1384 22.0507 75.3946 22.7188C75.6508 23.3868 75.7788 24.1076 75.7788 24.8787C75.7788 25.6497 75.6508 26.3328 75.3946 26.9933Z" fill="#2B286F"/>
<path d="M128.512 19.0721C127.812 18.3212 126.988 17.7335 126.036 17.3091C125.084 16.8846 124.077 16.6711 123.012 16.6711C121.947 16.6711 120.913 16.8846 119.973 17.3091C119.034 17.736 118.213 18.3237 117.512 19.0721C116.811 19.8231 116.259 20.6945 115.852 21.6866C115.445 22.6811 115.242 23.7334 115.242 24.8485C115.242 25.9636 115.445 27.0436 115.852 28.0255C116.259 29.01 116.814 29.8715 117.512 30.6099C118.213 31.3507 119.032 31.9334 119.973 32.3579C120.913 32.7823 121.927 32.9958 123.012 32.9958C124.097 32.9958 125.087 32.7823 126.036 32.3579C126.985 31.9334 127.812 31.3482 128.512 30.6099C129.213 29.8715 129.766 29.0075 130.172 28.0255C130.579 27.0436 130.783 25.9837 130.783 24.8485C130.783 23.7133 130.579 22.6786 130.172 21.6866C129.766 20.6945 129.211 19.8205 128.512 19.0721ZM127.432 26.9933C127.176 27.6513 126.827 28.224 126.38 28.7112C125.936 29.1984 125.423 29.5827 124.846 29.8665C124.268 30.1503 123.655 30.2909 123.01 30.2909C122.364 30.2909 121.754 30.1503 121.174 29.8665C120.596 29.5827 120.084 29.1984 119.639 28.7112C119.195 28.224 118.843 27.6513 118.587 26.9933C118.331 26.3353 118.203 25.6296 118.203 24.8787C118.203 24.1277 118.331 23.3894 118.587 22.7188C118.843 22.0507 119.192 21.4681 119.639 20.9708C120.084 20.4735 120.596 20.0842 121.174 19.8004C121.751 19.5167 122.364 19.376 123.01 19.376C123.655 19.376 124.265 19.5192 124.846 19.8004C125.423 20.0842 125.936 20.476 126.38 20.9708C126.825 21.4681 127.176 22.0507 127.432 22.7188C127.689 23.3868 127.817 24.1076 127.817 24.8787C127.817 25.6497 127.689 26.3328 127.432 26.9933Z" fill="#2B286F"/>
<path d="M108.581 17.249V17.9647V40.9372L111.683 40.4199V17.9647V16.6713V15.9405V14.426L108.581 13.9966V17.249Z" fill="#2B286F"/>
<path d="M271.102 13.4917V23.505H265.991L266.496 26.1822C266.78 26.1219 267.109 26.0767 267.483 26.0441C267.857 26.0139 268.219 25.9989 268.563 25.9989H271.099V40.9372L274.201 40.4198V13.9262L271.099 13.4917H271.102Z" fill="#2B286F"/>
<path d="M88.9893 23.9395H84.9156V17.9672V14.4285L81.814 13.999V40.9422L84.9156 40.4248V26.4359H86.9223C87.1559 26.4359 87.3869 26.4484 87.6205 26.4735L88.2685 26.5439L89.3132 23.9395H88.9893Z" fill="#2B286F"/>
<path d="M139.056 23.9395H137.232V14.426L134.131 13.9966V40.9397L137.232 40.4224V26.4334H139.239C139.473 26.4334 139.704 26.446 139.937 26.4711L140.585 26.5414L141.63 23.937H139.056V23.9395Z" fill="#2B286F"/>
<path d="M190.28 31.7251C189.526 31.2102 188.642 30.8134 187.633 30.5347C186.62 30.2559 185.533 30.1152 184.37 30.1152C183.207 30.1152 182.142 30.2559 181.12 30.5347C180.098 30.8134 179.212 31.2102 178.458 31.7251C177.705 32.2399 177.107 32.8728 176.67 33.6213C176.23 34.3697 176.012 35.2261 176.012 36.188C176.012 37.1499 176.23 38.0063 176.67 38.7547C177.109 39.5031 177.705 40.1411 178.458 40.666C179.212 41.1909 180.098 41.5952 181.12 41.874C182.14 42.1528 183.225 42.2934 184.37 42.2934C185.515 42.2934 186.623 42.1528 187.633 41.874C188.645 41.5952 189.526 41.1909 190.28 40.666C191.033 40.1411 191.631 39.5031 192.068 38.7547C192.507 38.0063 192.726 37.1499 192.726 36.188C192.726 35.2261 192.507 34.3697 192.068 33.6213C191.628 32.8728 191.033 32.2399 190.28 31.7251ZM189.378 37.6095C189.092 38.0741 188.705 38.4659 188.218 38.7899C187.731 39.1114 187.153 39.3499 186.485 39.5057C185.817 39.6614 185.111 39.7367 184.368 39.7367C183.624 39.7367 182.951 39.6589 182.293 39.5057C181.635 39.3525 181.058 39.1114 180.56 38.7899C180.063 38.4684 179.669 38.0741 179.372 37.6095C179.076 37.1449 178.928 36.6049 178.928 35.9846C178.928 35.417 179.076 34.9147 179.372 34.4752C179.669 34.0382 180.063 33.664 180.56 33.355C181.058 33.0461 181.633 32.8126 182.293 32.6594C182.954 32.5062 183.642 32.4283 184.368 32.4283C185.093 32.4283 185.817 32.5062 186.485 32.6594C187.153 32.8151 187.731 33.0461 188.218 33.355C188.705 33.664 189.092 34.0382 189.378 34.4752C189.664 34.9147 189.808 35.417 189.808 35.9846C189.808 36.6024 189.664 37.1449 189.378 37.6095Z" fill="#2B286F"/>
<path d="M163.45 17.2488V17.9645H163.442V19.4689H158.1L158.605 22.1462C158.889 22.0859 159.218 22.0407 159.592 22.008C159.966 21.9779 160.328 21.9628 160.672 21.9628H163.44V27.679H158.447C158.763 26.7949 158.924 25.8531 158.924 24.851C158.924 23.7359 158.72 22.6811 158.314 21.6891C157.907 20.697 157.352 19.823 156.654 19.0746C155.953 18.3237 155.129 17.736 154.177 17.3116C153.225 16.8871 152.218 16.6736 151.153 16.6736C150.089 16.6736 149.054 16.8871 148.112 17.3116C147.173 17.7385 146.351 18.3262 145.651 19.0746C144.95 19.8256 144.398 20.697 143.991 21.6891C143.584 22.6836 143.38 23.7359 143.38 24.851C143.38 25.9661 143.584 27.0461 143.991 28.0281C144.398 29.0126 144.953 29.874 145.651 30.6124C146.351 31.3533 147.17 31.9359 148.112 32.3604C149.051 32.7848 150.066 32.9983 151.153 32.9983C152.241 32.9983 153.228 32.7848 154.177 32.3604C155.127 31.9359 155.953 31.3507 156.654 30.6124C157.299 29.9318 157.814 29.1406 158.211 28.2541L158.607 30.3537C158.891 30.2934 159.22 30.2482 159.594 30.2156C159.969 30.1854 160.33 30.1703 160.674 30.1703H163.442V40.9346L166.544 40.4172V17.962H166.551V14.4234L163.45 13.9939V17.2463V17.2488ZM155.574 26.9958C155.317 27.6538 154.966 28.2265 154.521 28.7137C154.077 29.2009 153.564 29.5852 152.987 29.869C152.409 30.1528 151.796 30.2934 151.151 30.2934C150.505 30.2934 149.895 30.1528 149.315 29.869C148.737 29.5852 148.225 29.2009 147.78 28.7137C147.336 28.2265 146.984 27.6538 146.728 26.9958C146.472 26.3378 146.344 25.6321 146.344 24.8812C146.344 24.1302 146.472 23.3919 146.728 22.7213C146.984 22.0532 147.333 21.4706 147.78 20.9733C148.225 20.476 148.737 20.0867 149.315 19.803C149.893 19.5192 150.505 19.3785 151.151 19.3785C151.796 19.3785 152.407 19.5217 152.987 19.803C153.564 20.0867 154.077 20.4785 154.521 20.9733C154.966 21.4706 155.317 22.0532 155.574 22.7213C155.83 23.3893 155.958 24.1101 155.958 24.8812C155.958 25.6522 155.83 26.3353 155.574 26.9958Z" fill="#2B286F"/>
<path d="M220.254 21.4356H218.431V14.426L215.329 13.9966V30.6301L218.431 30.3262V23.932H220.438C220.671 23.932 220.902 23.9446 221.136 23.9697L221.784 24.04L222.829 21.4356H220.254Z" fill="#2B286F"/>
<path d="M189.903 17.249V19.5595H188.401H185.817H183.062L183.567 22.2368C183.85 22.1765 184.179 22.1313 184.554 22.0986C184.928 22.0685 185.289 22.0534 185.634 22.0534H188.399H189.903V29.9294L193.005 29.6255V14.426L189.903 13.9966V17.249Z" fill="#2B286F"/>
<path d="M101.069 26.2349C100.502 25.3534 100.09 24.394 99.8387 23.3618C99.5851 22.3271 99.4595 21.212 99.4595 20.0165V16.7893L96.1494 16.3975C96.1494 16.3975 96.3201 19.5896 96.2548 21.5033C96.2021 22.2593 96.1042 22.9826 95.9484 23.6657C95.7149 24.7004 95.3256 25.6573 94.7781 26.5388C94.2306 27.4204 93.4997 28.2416 92.5881 29.0026C91.6764 29.7636 90.5513 30.4768 89.2126 31.1474L91.1892 33.3977C92.9522 32.486 94.3763 31.4463 95.4612 30.2809C96.5462 29.1156 97.3925 27.8523 98.0003 26.4936C98.6081 27.772 99.4394 28.9473 100.494 30.0222C101.549 31.0972 102.958 32.1218 104.721 33.0938L106.698 30.8435C105.359 30.1754 104.229 29.4597 103.307 28.6987C102.385 27.9377 101.639 27.1165 101.072 26.2349H101.069Z" fill="#2B286F"/>
<path d="M178.649 23.2991C179.237 24.2309 180.058 25.135 181.113 26.0065C182.168 26.878 183.546 27.7494 185.249 28.6209L187.226 26.3706C185.887 25.8231 184.757 25.2304 183.835 24.5925C182.913 23.9546 182.173 23.2991 181.615 22.6311C181.058 21.963 180.658 21.2824 180.415 20.5942C180.294 20.2527 180.206 19.9161 180.146 19.5871C180.083 19.2355 180.065 18.8764 180.065 18.5172V15.2297L176.886 14.8455C176.886 14.8455 177.047 18.3188 176.858 19.552V19.562C176.858 19.5696 176.856 19.5771 176.853 19.5846C176.808 20.1296 176.708 20.6595 176.552 21.1744C176.328 21.9052 175.949 22.6135 175.412 23.3041C174.874 23.9948 174.153 24.6628 173.252 25.3108C172.35 25.9588 171.22 26.5891 169.861 27.1969L171.838 29.4472C173.641 28.5355 175.08 27.5611 176.158 26.5264C177.233 25.4916 178.064 24.4192 178.652 23.3041L178.649 23.2991Z" fill="#2B286F"/>
<path d="M216.484 31.6321H200.12L200.609 34.3998C200.893 34.3395 201.222 34.2843 201.599 34.2315C201.973 34.1813 202.335 34.1562 202.679 34.1562H215.329V40.9975L218.431 40.4801V31.6296H216.484V31.6321Z" fill="#2B286F"/>
<path d="M233.208 27.5109C234.06 28.4326 235.205 29.3116 236.644 30.1404L238.591 27.8901C237.212 27.2221 236.127 26.4962 235.336 25.7152C234.545 24.9341 233.947 24.1555 233.542 23.3745C233.136 22.5934 232.884 21.845 232.781 21.1242C232.681 20.4059 232.628 19.7705 232.628 19.223V15.0966L229.366 14.7048C229.461 15.3453 229.512 15.9907 229.512 16.6387L229.524 18.03V19.5294C229.524 20.0769 229.479 20.7098 229.388 21.4306C229.298 22.1514 229.059 22.8998 228.673 23.6809C228.288 24.4619 227.706 25.243 226.925 26.0216C226.144 26.8026 225.074 27.5259 223.718 28.1965L225.664 30.4468C227.123 29.6557 228.293 28.7641 229.177 27.7696C230.059 26.7775 230.745 25.7528 231.229 24.698C231.696 25.6499 232.355 26.5892 233.206 27.5109H233.208Z" fill="#2B286F"/>
<path d="M236.921 22.7315C237.295 22.7014 237.656 22.6863 238 22.6863H240.293V33.8825L243.365 33.3651V14.426L240.293 13.9966V20.1924H235.429L235.934 22.8696C236.217 22.8094 236.546 22.7642 236.921 22.7315Z" fill="#2B286F"/>
<path d="M248.533 17.0579V16.1864V15.4556V13.9412L245.462 13.5117V16.7641V17.0579V33.8823L248.533 33.365V17.0579Z" fill="#2B286F"/>
<path d="M246.07 37.3507H233.879V31.4889L230.373 31.0544L230.627 32.2147C230.687 32.4935 230.717 32.7773 230.717 33.0636V39.8723H248.873V36.8911L247.758 37.1523C247.205 37.2829 246.637 37.3482 246.07 37.3482V37.3507Z" fill="#2B286F"/>
<path d="M211.929 23.9396C211.929 22.179 211.183 20.5817 209.975 19.4088H213.32V16.8245C213.32 16.8245 212.828 16.9777 211.374 16.9777H206.627V13.9062L203.317 13.5144C203.415 14.1548 203.465 14.8003 203.465 15.4482V16.9777H199.361C197.93 16.9777 196.624 16.7643 196.624 16.7643L197.096 19.4088H199.967C198.759 20.5817 198.013 22.179 198.013 23.9396C198.013 27.5435 201.127 30.4644 204.969 30.4644C208.812 30.4644 211.926 27.5435 211.926 23.9396H211.929ZM200.73 23.8893C200.73 21.6918 202.629 19.9086 204.972 19.9086C207.315 19.9086 209.214 21.6918 209.214 23.8893C209.214 26.0869 207.315 27.87 204.972 27.87C202.629 27.87 200.73 26.0869 200.73 23.8893Z" fill="#2B286F"/>
<path d="M264.868 30.4467H256.658V26.0666H261.98L263.603 26.0717H263.967C264.198 26.0717 264.429 26.0842 264.657 26.1118L265.27 26.1822L264.765 23.5125L261.98 23.5752H256.658V19.1952H262.919L264.542 19.2002H264.906C265.137 19.2002 265.368 19.2128 265.597 19.2404L266.232 19.3133L265.775 16.9022L265.725 16.6436L264.306 16.6712L263.733 16.6812C260.335 16.7289 256.935 16.6712 253.539 16.6712H253.496V32.9707H264.871H266.041H266.405C266.636 32.9707 266.867 32.9833 267.096 33.0109L267.573 33.0661L267.068 30.3989L264.868 30.4517V30.4467Z" fill="#2B286F"/>
<path d="M66.8632 47.5298L63.199 56.109H64.4547L65.5196 53.5799H69.1587L70.2964 56.109H71.5471L67.7221 47.5298H66.8632ZM66.0043 52.495L67.2801 49.4059L68.6564 52.495H66.0043Z" fill="#2B286F"/>
<path d="M75.3043 51.5254L74.3725 50.9728C73.9531 50.7267 73.6492 50.4931 73.4609 50.2696C73.2725 50.0461 73.1771 49.8075 73.1771 49.5513C73.1771 49.2625 73.3052 49.0264 73.5613 48.8431C73.8175 48.6597 74.1465 48.5668 74.5433 48.5668C75.2516 48.5668 75.9121 48.8632 76.5274 49.4534V48.067C75.9322 47.6677 75.2792 47.4668 74.5684 47.4668C73.8577 47.4668 73.2173 47.6752 72.7526 48.0947C72.2855 48.5141 72.0544 49.0591 72.0544 49.7322C72.0544 50.1792 72.1775 50.576 72.4236 50.9201C72.6698 51.2642 73.0842 51.6132 73.6668 51.9699L74.5961 52.5325C75.3445 52.9971 75.7187 53.4918 75.7187 54.0092C75.7187 54.3307 75.5906 54.5969 75.337 54.8079C75.0833 55.0213 74.7643 55.1268 74.3826 55.1268C73.5161 55.1268 72.7526 54.7099 72.0921 53.8736V55.4257C72.7853 55.943 73.5513 56.2017 74.3951 56.2017C75.1285 56.2017 75.7237 55.9882 76.1808 55.5613C76.6379 55.1343 76.869 54.5793 76.869 53.8937C76.869 52.9318 76.3491 52.1432 75.3093 51.5203L75.3043 51.5254Z" fill="#2B286F"/>
<path d="M84.0593 47.5298L80.395 56.109H81.6508L82.7156 53.5799H86.3548L87.4925 56.109H88.7432L84.9182 47.5298H84.0593ZM83.2003 52.495L84.4762 49.4059L85.8525 52.495H83.2003Z" fill="#2B286F"/>
<path d="M147.489 55.4987C147.311 55.2551 147.072 54.8909 146.776 54.4062C146.304 53.6377 145.937 53.0977 145.676 52.7888C145.415 52.4799 145.149 52.2363 144.877 52.0555C145.342 51.8772 145.699 51.6059 145.945 51.2443C146.193 50.8826 146.316 50.4531 146.316 49.9559C146.316 49.2275 146.063 48.6499 145.555 48.2229C145.048 47.796 144.362 47.5825 143.501 47.5825H141.364V56.1115H142.584V52.3995H142.903C143.303 52.3995 143.586 52.4447 143.757 52.5377C143.925 52.6281 144.116 52.7788 144.325 52.9847C144.536 53.1932 144.767 53.4694 145.018 53.821L145.427 54.4866L145.807 55.1094L146.045 55.446C146.083 55.4962 146.105 55.5288 146.118 55.5489L146.49 56.1115H147.944L147.492 55.5012L147.489 55.4987ZM144.322 51.1513C144.091 51.2568 143.667 51.3096 143.049 51.3096H142.584V48.6172H142.951C143.549 48.6172 143.978 48.6625 144.237 48.7504C144.496 48.8383 144.697 48.994 144.837 49.2125C144.98 49.431 145.051 49.6746 145.051 49.9433C145.051 50.212 144.985 50.4582 144.857 50.6742C144.729 50.8876 144.551 51.0484 144.32 51.1538L144.322 51.1513Z" fill="#2B286F"/>
<path d="M78.2202 48.8684V49.2853V49.436V56.109H79.4433V49.436V49.2853V48.6197V48.3058V47.6528L78.2202 47.4695V48.8684Z" fill="#2B286F"/>
<path d="M96.4535 48.7956V49.2853V49.4937V54.2053L90.7022 47.58H89.7126V56.109H90.8604V49.539L96.564 56.109H97.6138V49.4937V49.2853V48.5469V48.2355V47.5825L96.4535 47.3992V48.7956Z" fill="#2B286F"/>
<path d="M124.537 48.7956V49.2853V54.2053L118.786 47.58H117.796V56.109H118.944V49.539L124.647 56.109H125.697V49.4937V49.2853V48.5469V48.2355V47.5825L124.537 47.3992V48.7956Z" fill="#2B286F"/>
<path d="M131.358 47.5775H127.947C127.332 47.5775 126.772 47.4871 126.772 47.4871L126.975 48.6549H129.723V56.1115H130.951V48.6549H133.95V47.5122C133.95 47.5122 133.739 47.5775 133.113 47.5775H131.36H131.358Z" fill="#2B286F"/>
<path d="M104.977 54.1802C104.4 53.5774 104.111 52.8089 104.111 51.8721C104.111 50.9353 104.405 50.1718 104.99 49.554C105.578 48.9362 106.314 48.6298 107.203 48.6298C107.933 48.6298 108.677 48.8357 109.435 49.2401L109.862 48.1727C108.868 47.7056 107.961 47.4695 107.147 47.4695C105.967 47.4695 104.975 47.8939 104.169 48.7403C103.363 49.5867 102.961 50.6314 102.961 51.8721C102.961 52.6532 103.136 53.3815 103.488 54.0521C103.84 54.7226 104.317 55.2501 104.92 55.6343C105.522 56.0161 106.258 56.2094 107.125 56.2094C108.19 56.2094 109.131 55.9658 109.945 55.4761V54.1324C109.049 54.7678 108.132 55.0843 107.193 55.0843C106.253 55.0843 105.555 54.7829 104.977 54.1802Z" fill="#2B286F"/>
<path d="M139.736 52.4094H139.734L139.736 52.4115V52.4094Z" fill="#2B286F"/>
<path d="M139.324 55.0089H138.548H136.298V52.3593H139.008L139.164 52.3618C139.262 52.3618 139.362 52.3668 139.46 52.3793L139.734 52.4095L139.518 51.2668H138.322H136.298V48.6649H138.033L139.121 48.6674H139.277C139.375 48.6674 139.475 48.6724 139.573 48.685L139.844 48.7151L139.628 47.5774H135.075V56.0963H139.249L139.405 56.0988C139.503 56.0988 139.603 56.1039 139.701 56.1164L139.977 56.1466L139.761 55.0089H139.319H139.324Z" fill="#2B286F"/>
<path d="M116.208 52.4094H116.206L116.208 52.4115V52.4094Z" fill="#2B286F"/>
<path d="M115.797 55.0089H115.021H112.771V52.3593H115.481L115.636 52.3618C115.734 52.3618 115.835 52.3668 115.933 52.3793L116.206 52.4095L115.99 51.2668H114.795H112.771V48.6649H114.506L115.594 48.6674H115.749C115.847 48.6674 115.948 48.6724 116.046 48.685L116.317 48.7151L116.101 47.5774H111.548V56.0963H115.722L115.877 56.0988C115.975 56.0988 116.076 56.1039 116.174 56.1164L116.45 56.1466L116.234 55.0089H115.792H115.797Z" fill="#2B286F"/>
<path d="M193.708 47.281C192.51 47.281 191.518 47.7054 190.732 48.5568C189.949 49.4082 189.554 50.4831 189.554 51.7841C189.554 53.085 189.943 54.1047 190.722 54.946C191.501 55.7874 192.475 56.2068 193.645 56.2068C194.816 56.2068 195.886 55.7874 196.689 54.946C197.493 54.1047 197.897 53.0423 197.897 51.7615C197.897 50.4806 197.498 49.4107 196.702 48.5594C195.903 47.708 194.906 47.2835 193.706 47.2835L193.708 47.281ZM195.843 54.0595C195.275 54.6823 194.567 54.9938 193.718 54.9938C192.869 54.9938 192.169 54.6874 191.609 54.0771C191.046 53.4668 190.765 52.7008 190.765 51.7816C190.765 50.8624 191.046 50.0537 191.606 49.4434C192.166 48.8331 192.882 48.5267 193.751 48.5267C194.62 48.5267 195.275 48.8356 195.843 49.4509C196.411 50.0662 196.694 50.8272 196.694 51.7314C196.694 52.6355 196.411 53.4341 195.843 54.057V54.0595Z" fill="#2B286F"/>
<path d="M161.694 47.281C160.496 47.281 159.504 47.7054 158.718 48.5568C157.935 49.4082 157.54 50.4831 157.54 51.7841C157.54 53.085 157.93 54.1047 158.708 54.946C159.487 55.7874 160.461 56.2068 161.631 56.2068C162.802 56.2068 163.872 55.7874 164.675 54.946C165.479 54.1047 165.883 53.0423 165.883 51.7615C165.883 50.4806 165.484 49.4107 164.688 48.5594C163.889 47.708 162.892 47.2835 161.692 47.2835L161.694 47.281ZM163.829 54.0595C163.261 54.6823 162.553 54.9938 161.704 54.9938C160.855 54.9938 160.155 54.6874 159.595 54.0771C159.032 53.4668 158.751 52.7008 158.751 51.7816C158.751 50.8624 159.032 50.0537 159.592 49.4434C160.152 48.8331 160.868 48.5267 161.737 48.5267C162.606 48.5267 163.261 48.8356 163.829 49.4509C164.397 50.0662 164.68 50.8272 164.68 51.7314C164.68 52.6355 164.397 53.4341 163.829 54.057V54.0595Z" fill="#2B286F"/>
<path d="M172.634 54.3183C172.162 53.5498 171.795 53.0098 171.534 52.7009C171.273 52.392 171.007 52.1484 170.735 51.9676C171.2 51.7893 171.557 51.518 171.803 51.1564C172.051 50.7947 172.175 50.3653 172.175 49.868C172.175 49.1396 171.921 48.562 171.414 48.1351C170.906 47.7081 170.223 47.4946 169.359 47.4946H167.222V56.0236H168.442V52.3116H168.761C169.161 52.3116 169.445 52.3569 169.615 52.4498C169.784 52.5402 169.975 52.6909 170.183 52.8968C170.394 53.1053 170.625 53.3815 170.876 53.7331L171.285 54.3987L171.665 55.0215L171.903 55.3581C171.941 55.4083 171.964 55.441 171.976 55.461L172.348 56.0236H173.802L173.35 55.4133C173.172 55.1697 172.933 54.8055 172.637 54.3208L172.634 54.3183ZM170.183 51.0634C169.952 51.1689 169.527 51.2217 168.91 51.2217H168.445V48.5294H168.812C169.409 48.5294 169.839 48.5746 170.098 48.6625C170.356 48.7504 170.557 48.9061 170.698 49.1246C170.841 49.3431 170.911 49.5867 170.911 49.8554C170.911 50.1241 170.846 50.3703 170.718 50.5863C170.59 50.8022 170.411 50.9605 170.18 51.066L170.183 51.0634Z" fill="#2B286F"/>
<path d="M185.711 53.3713L183.336 47.4919H182.18L179.815 53.3713L177.464 47.4919H176.233L179.671 56.0586H179.933L182.75 49.1219L185.541 56.0586H185.807L189.258 47.4919H188.04L185.711 53.3713Z" fill="#2B286F"/>
<path d="M203.443 50.9955L200.607 47.4919H199.452V56.0209H200.672V49.3831L203.327 52.6807H203.553L206.175 49.3831V56.0209H207.403V47.4919H206.261L203.443 50.9955Z" fill="#2B286F"/>
<path d="M224.865 48.5669L225.139 50.2446H225.83L226.116 48.5669V47.0701H224.865V48.5669Z" fill="#2B286F"/>
<path d="M230.431 51.4375L229.499 50.8849C229.08 50.6388 228.776 50.4052 228.588 50.1817C228.399 49.9582 228.304 49.7196 228.304 49.4634C228.304 49.1746 228.432 48.9385 228.688 48.7552C228.944 48.5719 229.273 48.4789 229.67 48.4789C230.378 48.4789 231.039 48.7753 231.654 49.3655V47.9791C231.059 47.5798 230.406 47.3789 229.695 47.3789C228.984 47.3789 228.344 47.5874 227.879 48.0068C227.412 48.4262 227.181 48.9712 227.181 49.6443C227.181 50.0913 227.304 50.4881 227.55 50.8322C227.796 51.1763 228.211 51.5254 228.794 51.882L229.723 52.4446C230.471 52.9092 230.845 53.4039 230.845 53.9213C230.845 54.2428 230.717 54.509 230.464 54.72C230.21 54.9334 229.891 55.0389 229.509 55.0389C228.643 55.0389 227.879 54.622 227.219 53.7857V55.3378C227.912 55.8552 228.678 56.1138 229.522 56.1138C230.255 56.1138 230.85 55.9004 231.308 55.4734C231.765 55.0465 231.996 54.4914 231.996 53.8058C231.996 52.8439 231.476 52.0553 230.436 51.4324L230.431 51.4375Z" fill="#2B286F"/>
<path d="M240.153 51.4375L239.221 50.8849C238.802 50.6388 238.498 50.4052 238.309 50.1817C238.121 49.9582 238.026 49.7196 238.026 49.4634C238.026 49.1746 238.154 48.9385 238.41 48.7552C238.666 48.5719 238.995 48.4789 239.392 48.4789C240.1 48.4789 240.761 48.7753 241.376 49.3655V47.9791C240.781 47.5798 240.128 47.3789 239.417 47.3789C238.706 47.3789 238.066 47.5874 237.601 48.0068C237.134 48.4262 236.903 48.9712 236.903 49.6443C236.903 50.0913 237.026 50.4881 237.272 50.8322C237.518 51.1763 237.933 51.5254 238.515 51.882L239.445 52.4446C240.193 52.9092 240.567 53.4039 240.567 53.9213C240.567 54.2428 240.439 54.509 240.186 54.72C239.932 54.9334 239.613 55.0389 239.231 55.0389C238.365 55.0389 237.601 54.622 236.941 53.7857V55.3378C237.634 55.8552 238.4 56.1138 239.244 56.1138C239.977 56.1138 240.572 55.9004 241.029 55.4734C241.487 55.0465 241.718 54.4914 241.718 53.8058C241.718 52.8439 241.198 52.0553 240.158 51.4324L240.153 51.4375Z" fill="#2B286F"/>
<path d="M264.828 48.0143C264.185 47.6652 263.314 47.4919 262.209 47.4919H259.474V56.0109H262.04C262.761 56.0109 263.248 55.9883 263.505 55.9456C263.761 55.9029 264.04 55.8175 264.346 55.6919C264.868 55.4835 265.328 55.1771 265.722 54.7702C266.109 54.3759 266.408 53.9163 266.616 53.3964C266.825 52.8766 266.93 52.3291 266.93 51.7589C266.93 50.9603 266.739 50.2244 266.36 49.5488C265.981 48.8733 265.471 48.3609 264.828 48.0143ZM264.868 53.9716C264.69 54.1549 264.494 54.3081 264.278 54.4312C264.062 54.5542 263.796 54.6597 263.474 54.7401C263.153 54.8204 262.703 54.8631 262.121 54.8631H260.634V48.6849H262.086C262.643 48.6849 263.047 48.7075 263.299 48.7502C263.55 48.7929 263.816 48.8833 264.097 49.0189C264.379 49.1545 264.627 49.3253 264.843 49.5363C265.431 50.0989 265.725 50.8272 265.725 51.7188C265.725 52.6103 265.438 53.3763 264.866 53.9716H264.868Z" fill="#2B286F"/>
<path d="M272.722 47.4919L270.406 50.4329L268.123 47.4919H266.649L269.801 51.5103V56.0209H271.052V51.5103L274.203 47.4919H272.722Z" fill="#2B286F"/>
<path d="M222.319 48.7878V49.275V54.195L216.568 47.5697H215.578V56.0987H216.726V49.5312L222.429 56.0987H223.479V49.486V49.275V48.5392V48.2252V47.5723L222.319 47.3889V48.7878Z" fill="#2B286F"/>
<path d="M246.994 47.5623H243.584C242.968 47.5623 242.408 47.4719 242.408 47.4719L242.612 48.6398H245.359V56.0963H246.587V48.6398H249.586V47.497C249.586 47.497 249.375 47.5623 248.75 47.5623H246.997H246.994Z" fill="#2B286F"/>
<path d="M155.717 50.9553H155.478L154.549 50.9603H153.04V48.5794H155.639L155.795 48.5819C155.893 48.5819 155.993 48.5869 156.091 48.5995L156.362 48.6296L156.146 47.4919H151.817V56.0209H153.037V52.0453H155.34H155.642H155.797C155.895 52.0453 155.996 52.0503 156.094 52.0628L156.365 52.093L156.149 50.9553H155.712H155.717Z" fill="#2B286F"/>
<path d="M213.478 54.8907H212.702H210.452V52.2411H213.162L213.318 52.2436C213.416 52.2436 213.516 52.2486 213.614 52.2612L213.888 52.2913L213.672 51.1486H212.476H210.452V48.5467H212.188L213.275 48.5492H213.431C213.529 48.5492 213.629 48.5542 213.727 48.5668L213.998 48.5969L213.782 47.4592H212.592H209.229V55.9782H213.403L213.559 55.9807C213.657 55.9807 213.757 55.9857 213.855 55.9983L214.131 56.0284L213.915 54.8907H213.473H213.478Z" fill="#2B286F"/>
<path d="M256.545 50.7645V52.3342C256.545 53.0047 256.493 53.4794 256.387 53.7556C256.282 54.0319 256.108 54.273 255.867 54.4764C255.41 54.8557 254.82 55.044 254.097 55.044C253.587 55.044 253.147 54.9486 252.771 54.7602C252.396 54.5719 252.118 54.3207 251.934 54.0068C251.751 53.6929 251.66 53.1353 251.66 52.3342V47.6653L250.432 47.492V52.3216C250.432 53.0097 250.478 53.5145 250.571 53.836C250.661 54.1575 250.779 54.4287 250.92 54.6522C251.06 54.8733 251.231 55.0742 251.434 55.2525C252.105 55.8301 252.997 56.119 254.109 56.119C255.222 56.119 256.083 55.8276 256.759 55.245C256.962 55.0692 257.136 54.8707 257.274 54.6497C257.414 54.4287 257.532 54.15 257.628 53.8159C257.723 53.4819 257.771 52.9871 257.771 52.3316V50.762V47.6628L256.543 47.4895V50.762L256.545 50.7645Z" fill="#2B286F"/>
<path d="M49.004 27.9855C52.8767 27.9855 56.0186 24.8462 56.0186 20.9709L42.0347 21.747C42.4214 25.2555 45.395 27.983 49.004 27.983V27.9855Z" fill="url(#paint0_linear_144_1565)"/>
<path d="M49.004 13.9588C45.3925 13.9588 42.4214 16.6888 42.0347 20.1948L56.0186 20.9709C56.0186 17.0982 52.8792 13.9563 49.004 13.9563V13.9588Z" fill="url(#paint1_linear_144_1565)"/>
<path d="M34.9748 13.9587C31.6345 13.9587 28.8393 16.2969 28.1335 19.4237L41.9442 20.1897C41.5549 16.6837 38.5838 13.9587 34.9748 13.9587Z" fill="url(#paint2_linear_144_1565)"/>
<path d="M34.9748 27.9854C38.5838 27.9854 41.5549 25.2579 41.9442 21.7544L28.1335 22.5204C28.8393 25.6472 31.632 27.9854 34.9748 27.9854Z" fill="url(#paint3_linear_144_1565)"/>
<path d="M20.9481 13.9587C17.8867 13.9587 15.2848 15.9202 14.3279 18.6577L27.7844 19.4061C27.0711 16.2869 24.2834 13.9613 20.9481 13.9613V13.9587Z" fill="url(#paint4_linear_144_1565)"/>
<path d="M20.9481 27.9854C24.2834 27.9854 27.0711 25.6573 27.7844 22.5405L14.3279 23.2889C15.2848 26.024 17.8867 27.9879 20.9481 27.9879V27.9854Z" fill="url(#paint5_linear_144_1565)"/>
<path d="M21.34 27.9854C17.4673 27.9854 14.3254 31.1247 14.3254 34.9999L28.3094 34.2239C27.9226 30.7153 24.949 27.9879 21.34 27.9879V27.9854Z" fill="url(#paint6_linear_144_1565)"/>
<path d="M21.34 42.0145C24.9515 42.0145 27.9226 39.2845 28.3094 35.7785L14.3254 35.0024C14.3254 38.8751 17.4648 42.017 21.34 42.017V42.0145Z" fill="url(#paint7_linear_144_1565)"/>
<path d="M35.369 42.0147C38.7093 42.0147 41.5046 39.6765 42.2103 36.5497L28.3997 35.7837C28.7889 39.2897 31.76 42.0147 35.369 42.0147Z" fill="url(#paint8_linear_144_1565)"/>
<path d="M35.369 27.9854C31.76 27.9854 28.7889 30.7128 28.3997 34.2163L42.2103 33.4503C41.5046 30.3235 38.7118 27.9854 35.369 27.9854Z" fill="url(#paint9_linear_144_1565)"/>
<path d="M49.3958 42.0145C52.4573 42.0145 55.0592 40.0531 56.0161 37.3156L42.5596 36.5671C43.2728 39.6864 46.0606 42.012 49.3958 42.012V42.0145Z" fill="url(#paint10_linear_144_1565)"/>
<path d="M49.3958 27.9854C46.0606 27.9854 43.2728 30.3136 42.5596 33.4303L56.0161 32.6819C55.0592 29.9469 52.4573 27.9829 49.3958 27.9829V27.9854Z" fill="url(#paint11_linear_144_1565)"/>
<path d="M49.004 56.0412C52.8767 56.0412 56.0186 52.9018 56.0186 49.0266L42.0347 49.8027C42.4214 53.3112 45.395 56.0387 49.004 56.0387V56.0412Z" fill="url(#paint12_linear_144_1565)"/>
<path d="M49.004 42.0145C45.3925 42.0145 42.4214 44.7445 42.0347 48.2505L56.0186 49.0265C56.0186 45.1538 52.8792 42.012 49.004 42.012V42.0145Z" fill="url(#paint13_linear_144_1565)"/>
<path d="M34.9748 42.0146C31.6345 42.0146 28.8393 44.3528 28.1335 47.4796L41.9442 48.2456C41.5549 44.7396 38.5838 42.0146 34.9748 42.0146Z" fill="url(#paint14_linear_144_1565)"/>
<path d="M34.9748 56.0413C38.5838 56.0413 41.5549 53.3138 41.9442 49.8103L28.1335 50.5763C28.8393 53.7031 31.632 56.0413 34.9748 56.0413Z" fill="url(#paint15_linear_144_1565)"/>
<path d="M20.9481 42.0146C17.8867 42.0146 15.2848 43.9761 14.3279 46.7136L27.7844 47.4621C27.0711 44.3428 24.2834 42.0172 20.9481 42.0172V42.0146Z" fill="url(#paint16_linear_144_1565)"/>
<path d="M20.9481 56.0411C24.2834 56.0411 27.0711 53.7129 27.7844 50.5962L14.3279 51.3446C15.2848 54.0796 17.8867 56.0436 20.9481 56.0436V56.0411Z" fill="url(#paint17_linear_144_1565)"/>
<defs>
<linearGradient id="paint0_linear_144_1565" x1="23.844" y1="65.9164" x2="56.2823" y2="9.73206" gradientUnits="userSpaceOnUse">
<stop offset="0.07" stop-color="#6BB780"/>
<stop offset="0.18" stop-color="#5D9680"/>
<stop offset="0.35" stop-color="#4C6D80"/>
<stop offset="0.52" stop-color="#3E4D80"/>
<stop offset="0.68" stop-color="#343580"/>
<stop offset="0.83" stop-color="#2F2780"/>
<stop offset="0.95" stop-color="#2D2380"/>
</linearGradient>
<linearGradient id="paint1_linear_144_1565" x1="22.8444" y1="65.3387" x2="55.2827" y2="9.15434" gradientUnits="userSpaceOnUse">
<stop offset="0.07" stop-color="#6BB780"/>
<stop offset="0.18" stop-color="#5D9680"/>
<stop offset="0.35" stop-color="#4C6D80"/>
<stop offset="0.52" stop-color="#3E4D80"/>
<stop offset="0.68" stop-color="#343580"/>
<stop offset="0.83" stop-color="#2F2780"/>
<stop offset="0.95" stop-color="#2D2380"/>
</linearGradient>
<linearGradient id="paint2_linear_144_1565" x1="12.1379" y1="59.1579" x2="44.5762" y2="2.97352" gradientUnits="userSpaceOnUse">
<stop offset="0.07" stop-color="#6BB780"/>
<stop offset="0.18" stop-color="#5D9680"/>
<stop offset="0.35" stop-color="#4C6D80"/>
<stop offset="0.52" stop-color="#3E4D80"/>
<stop offset="0.68" stop-color="#343580"/>
<stop offset="0.83" stop-color="#2F2780"/>
<stop offset="0.95" stop-color="#2D2380"/>
</linearGradient>
<linearGradient id="paint3_linear_144_1565" x1="13.5393" y1="59.9666" x2="45.9776" y2="3.78223" gradientUnits="userSpaceOnUse">
<stop offset="0.07" stop-color="#6BB780"/>
<stop offset="0.18" stop-color="#5D9680"/>
<stop offset="0.35" stop-color="#4C6D80"/>
<stop offset="0.52" stop-color="#3E4D80"/>
<stop offset="0.68" stop-color="#343580"/>
<stop offset="0.83" stop-color="#2F2780"/>
<stop offset="0.95" stop-color="#2D2380"/>
</linearGradient>
<linearGradient id="paint4_linear_144_1565" x1="1.39627" y1="52.957" x2="33.8345" y2="-3.22732" gradientUnits="userSpaceOnUse">
<stop offset="0.07" stop-color="#6BB780"/>
<stop offset="0.18" stop-color="#5D9680"/>
<stop offset="0.35" stop-color="#4C6D80"/>
<stop offset="0.52" stop-color="#3E4D80"/>
<stop offset="0.68" stop-color="#343580"/>
<stop offset="0.83" stop-color="#2F2780"/>
<stop offset="0.95" stop-color="#2D2380"/>
</linearGradient>
<linearGradient id="paint5_linear_144_1565" x1="3.26732" y1="54.0345" x2="35.7031" y2="-2.14984" gradientUnits="userSpaceOnUse">
<stop offset="0.07" stop-color="#6BB780"/>
<stop offset="0.18" stop-color="#5D9680"/>
<stop offset="0.35" stop-color="#4C6D80"/>
<stop offset="0.52" stop-color="#3E4D80"/>
<stop offset="0.68" stop-color="#343580"/>
<stop offset="0.83" stop-color="#2F2780"/>
<stop offset="0.95" stop-color="#2D2380"/>
</linearGradient>
<linearGradient id="paint6_linear_144_1565" x1="7.98897" y1="56.7619" x2="40.4247" y2="0.577557" gradientUnits="userSpaceOnUse">
<stop offset="0.07" stop-color="#6BB780"/>
<stop offset="0.18" stop-color="#5D9680"/>
<stop offset="0.35" stop-color="#4C6D80"/>
<stop offset="0.52" stop-color="#3E4D80"/>
<stop offset="0.68" stop-color="#343580"/>
<stop offset="0.83" stop-color="#2F2780"/>
<stop offset="0.95" stop-color="#2D2380"/>
</linearGradient>
<linearGradient id="paint7_linear_144_1565" x1="8.98603" y1="57.3396" x2="41.4243" y2="1.15521" gradientUnits="userSpaceOnUse">
<stop offset="0.07" stop-color="#6BB780"/>
<stop offset="0.18" stop-color="#5D9680"/>
<stop offset="0.35" stop-color="#4C6D80"/>
<stop offset="0.52" stop-color="#3E4D80"/>
<stop offset="0.68" stop-color="#343580"/>
<stop offset="0.83" stop-color="#2F2780"/>
<stop offset="0.95" stop-color="#2D2380"/>
</linearGradient>
<linearGradient id="paint8_linear_144_1565" x1="19.6924" y1="63.5205" x2="52.1306" y2="7.33614" gradientUnits="userSpaceOnUse">
<stop offset="0.07" stop-color="#6BB780"/>
<stop offset="0.18" stop-color="#5D9680"/>
<stop offset="0.35" stop-color="#4C6D80"/>
<stop offset="0.52" stop-color="#3E4D80"/>
<stop offset="0.68" stop-color="#343580"/>
<stop offset="0.83" stop-color="#2F2780"/>
<stop offset="0.95" stop-color="#2D2380"/>
</linearGradient>
<linearGradient id="paint9_linear_144_1565" x1="18.2935" y1="62.7116" x2="50.7318" y2="6.52726" gradientUnits="userSpaceOnUse">
<stop offset="0.07" stop-color="#6BB780"/>
<stop offset="0.18" stop-color="#5D9680"/>
<stop offset="0.35" stop-color="#4C6D80"/>
<stop offset="0.52" stop-color="#3E4D80"/>
<stop offset="0.68" stop-color="#343580"/>
<stop offset="0.83" stop-color="#2F2780"/>
<stop offset="0.95" stop-color="#2D2380"/>
</linearGradient>
<linearGradient id="paint10_linear_144_1565" x1="30.4341" y1="69.7212" x2="62.8724" y2="13.5369" gradientUnits="userSpaceOnUse">
<stop offset="0.07" stop-color="#6BB780"/>
<stop offset="0.18" stop-color="#5D9680"/>
<stop offset="0.35" stop-color="#4C6D80"/>
<stop offset="0.52" stop-color="#3E4D80"/>
<stop offset="0.68" stop-color="#343580"/>
<stop offset="0.83" stop-color="#2F2780"/>
<stop offset="0.95" stop-color="#2D2380"/>
</linearGradient>
<linearGradient id="paint11_linear_144_1565" x1="28.5656" y1="68.6413" x2="61.0039" y2="12.4595" gradientUnits="userSpaceOnUse">
<stop offset="0.07" stop-color="#6BB780"/>
<stop offset="0.18" stop-color="#5D9680"/>
<stop offset="0.35" stop-color="#4C6D80"/>
<stop offset="0.52" stop-color="#3E4D80"/>
<stop offset="0.68" stop-color="#343580"/>
<stop offset="0.83" stop-color="#2F2780"/>
<stop offset="0.95" stop-color="#2D2380"/>
</linearGradient>
<linearGradient id="paint12_linear_144_1565" x1="35.992" y1="72.9309" x2="68.4303" y2="16.7465" gradientUnits="userSpaceOnUse">
<stop offset="0.07" stop-color="#6BB780"/>
<stop offset="0.18" stop-color="#5D9680"/>
<stop offset="0.35" stop-color="#4C6D80"/>
<stop offset="0.52" stop-color="#3E4D80"/>
<stop offset="0.68" stop-color="#343580"/>
<stop offset="0.83" stop-color="#2F2780"/>
<stop offset="0.95" stop-color="#2D2380"/>
</linearGradient>
<linearGradient id="paint13_linear_144_1565" x1="34.995" y1="72.3532" x2="67.4308" y2="16.1688" gradientUnits="userSpaceOnUse">
<stop offset="0.07" stop-color="#6BB780"/>
<stop offset="0.18" stop-color="#5D9680"/>
<stop offset="0.35" stop-color="#4C6D80"/>
<stop offset="0.52" stop-color="#3E4D80"/>
<stop offset="0.68" stop-color="#343580"/>
<stop offset="0.83" stop-color="#2F2780"/>
<stop offset="0.95" stop-color="#2D2380"/>
</linearGradient>
<linearGradient id="paint14_linear_144_1565" x1="24.2885" y1="66.1726" x2="56.7243" y2="9.98824" gradientUnits="userSpaceOnUse">
<stop offset="0.07" stop-color="#6BB780"/>
<stop offset="0.18" stop-color="#5D9680"/>
<stop offset="0.35" stop-color="#4C6D80"/>
<stop offset="0.52" stop-color="#3E4D80"/>
<stop offset="0.68" stop-color="#343580"/>
<stop offset="0.83" stop-color="#2F2780"/>
<stop offset="0.95" stop-color="#2D2380"/>
</linearGradient>
<linearGradient id="paint15_linear_144_1565" x1="25.6874" y1="66.9813" x2="58.1256" y2="10.797" gradientUnits="userSpaceOnUse">
<stop offset="0.07" stop-color="#6BB780"/>
<stop offset="0.18" stop-color="#5D9680"/>
<stop offset="0.35" stop-color="#4C6D80"/>
<stop offset="0.52" stop-color="#3E4D80"/>
<stop offset="0.68" stop-color="#343580"/>
<stop offset="0.83" stop-color="#2F2780"/>
<stop offset="0.95" stop-color="#2D2380"/>
</linearGradient>
<linearGradient id="paint16_linear_144_1565" x1="13.5468" y1="59.9717" x2="45.9826" y2="3.7874" gradientUnits="userSpaceOnUse">
<stop offset="0.07" stop-color="#6BB780"/>
<stop offset="0.18" stop-color="#5D9680"/>
<stop offset="0.35" stop-color="#4C6D80"/>
<stop offset="0.52" stop-color="#3E4D80"/>
<stop offset="0.68" stop-color="#343580"/>
<stop offset="0.83" stop-color="#2F2780"/>
<stop offset="0.95" stop-color="#2D2380"/>
</linearGradient>
<linearGradient id="paint17_linear_144_1565" x1="15.4154" y1="61.049" x2="47.8536" y2="4.86465" gradientUnits="userSpaceOnUse">
<stop offset="0.07" stop-color="#6BB780"/>
<stop offset="0.18" stop-color="#5D9680"/>
<stop offset="0.35" stop-color="#4C6D80"/>
<stop offset="0.52" stop-color="#3E4D80"/>
<stop offset="0.68" stop-color="#343580"/>
<stop offset="0.83" stop-color="#2F2780"/>
<stop offset="0.95" stop-color="#2D2380"/>
</linearGradient>
</defs>
</svg>
